<?xml version="1.0" encoding="UTF-8" standalone="no"?>
<!DOCTYPE svg PUBLIC "-//W3C//DTD SVG 1.1//EN"
 "http://www.w3.org/Graphics/SVG/1.1/DTD/svg11.dtd">
<!-- Generated by graphviz version 2.43.0 (0)
 -->
<!-- Title: G Pages: 1 -->
<svg width="469pt" height="733pt"
 viewBox="0.00 0.00 468.63 732.95" xmlns="http://www.w3.org/2000/svg" xmlns:xlink="http://www.w3.org/1999/xlink">
<g id="graph0" class="graph" transform="scale(1 1) rotate(0) translate(4 728.95)">
<title>G</title><style>.edge>path:hover{stroke-width:8}</style>
<polygon fill="white" stroke="transparent" points="-4,4 -4,-728.95 464.63,-728.95 464.63,4 -4,4"/>
<!-- hexastack_ai -->
<g id="node1" class="node">
<title>hexastack_ai</title><style>.edge>path:hover{stroke-width:8}</style>
<polygon fill="blue" stroke="black" points="356.13,-113 275.13,-113 275.13,-77 356.13,-77 356.13,-113"/>
<text text-anchor="middle" x="315.63" y="-92.5" font-family="Helvetica,sans-Serif" font-size="10.00" fill="white">hexastack_ai</text>
</g>
<!-- hexastack_ai_adapters -->
<g id="node2" class="node">
<title>hexastack_ai_adapters</title><style>.edge>path:hover{stroke-width:8}</style>
<polygon fill="blue" stroke="black" points="394.63,-444.97 310.63,-444.97 310.63,-408.97 394.63,-408.97 394.63,-444.97"/>
<text text-anchor="middle" x="352.63" y="-429.97" font-family="Helvetica,sans-Serif" font-size="10.00" fill="white">hexastack_ai.</text>
<text text-anchor="middle" x="352.63" y="-418.97" font-family="Helvetica,sans-Serif" font-size="10.00" fill="white">adapters</text>
</g>
<!-- hexastack_ai_adapters&#45;&gt;hexastack_ai -->
<g id="edge1" class="edge">
<title>hexastack_ai_adapters&#45;&gt;hexastack_ai</title><style>.edge>path:hover{stroke-width:8}</style>
<path fill="none" stroke="black" d="M331.63,-342.97C319.07,-302.69 316.36,-178.85 315.78,-123.37"/>
<polygon fill="blue" stroke="black" points="319.28,-123.2 315.69,-113.23 312.28,-123.26 319.28,-123.2"/>
</g>
<!-- hexastack_ai_infra_bootstrap -->
<g id="node8" class="node">
<title>hexastack_ai_infra_bootstrap</title><style>.edge>path:hover{stroke-width:8}</style>
<polygon fill="blue" stroke="black" points="303.63,-270.49 219.63,-270.49 219.63,-229.49 303.63,-229.49 303.63,-270.49"/>
<text text-anchor="middle" x="261.63" y="-258.49" font-family="Helvetica,sans-Serif" font-size="10.00" fill="white">hexastack_ai.</text>
<text text-anchor="middle" x="261.63" y="-247.49" font-family="Helvetica,sans-Serif" font-size="10.00" fill="white">infra.</text>
<text text-anchor="middle" x="261.63" y="-236.49" font-family="Helvetica,sans-Serif" font-size="10.00" fill="white">bootstrap</text>
</g>
<!-- hexastack_ai_adapters&#45;&gt;hexastack_ai_infra_bootstrap -->
<g id="edge2" class="edge">
<title>hexastack_ai_adapters&#45;&gt;hexastack_ai_infra_bootstrap</title><style>.edge>path:hover{stroke-width:8}</style>
<path fill="none" stroke="black" d="M348.68,-408.76C344.78,-392.28 338.42,-366.75 331.63,-344.97"/>
<path fill="none" stroke="black" d="M331.63,-342.97C323.91,-318.22 306.15,-295.02 290.45,-278.11"/>
<polygon fill="blue" stroke="black" points="292.88,-275.59 283.43,-270.81 287.84,-280.44 292.88,-275.59"/>
</g>
<!-- hexastack_ai_adapters_litellm -->
<g id="node3" class="node">
<title>hexastack_ai_adapters_litellm</title><style>.edge>path:hover{stroke-width:8}</style>
<polygon fill="blue" stroke="black" points="426.63,-41 342.63,-41 342.63,0 426.63,0 426.63,-41"/>
<text text-anchor="middle" x="384.63" y="-29" font-family="Helvetica,sans-Serif" font-size="10.00" fill="white">hexastack_ai.</text>
<text text-anchor="middle" x="384.63" y="-18" font-family="Helvetica,sans-Serif" font-size="10.00" fill="white">adapters.</text>
<text text-anchor="middle" x="384.63" y="-7" font-family="Helvetica,sans-Serif" font-size="10.00" fill="white">litellm</text>
</g>
<!-- hexastack_ai_adapters_litellm&#45;&gt;hexastack_ai_adapters -->
<g id="edge3" class="edge">
<title>hexastack_ai_adapters_litellm&#45;&gt;hexastack_ai_adapters</title><style>.edge>path:hover{stroke-width:8}</style>
<path fill="none" stroke="black" d="M384.63,-41.13C384.63,-68.93 384.63,-121.35 384.63,-166 384.63,-250.99 384.63,-250.99 384.63,-250.99 384.63,-304.17 370.15,-364.97 360.67,-399.08"/>
<polygon fill="blue" stroke="black" points="357.28,-398.2 357.91,-408.77 364.02,-400.11 357.28,-398.2"/>
</g>
<!-- hexastack_ai_adapters_litellm&#45;&gt;hexastack_ai_infra_bootstrap -->
<g id="edge4" class="edge">
<title>hexastack_ai_adapters_litellm&#45;&gt;hexastack_ai_infra_bootstrap</title><style>.edge>path:hover{stroke-width:8}</style>
<path fill="none" stroke="black" d="M342.57,-29.59C315.99,-37.09 283.57,-51.15 266.63,-77 238.54,-119.87 245.85,-182.52 253.73,-219.19"/>
<polygon fill="blue" stroke="black" points="250.39,-220.29 256.05,-229.25 257.22,-218.72 250.39,-220.29"/>
</g>
<!-- hexastack_ai_adapters_pydantic_ai -->
<g id="node4" class="node">
<title>hexastack_ai_adapters_pydantic_ai</title><style>.edge>path:hover{stroke-width:8}</style>
<polygon fill="blue" stroke="black" points="394.63,-521.97 310.63,-521.97 310.63,-480.97 394.63,-480.97 394.63,-521.97"/>
<text text-anchor="middle" x="352.63" y="-509.97" font-family="Helvetica,sans-Serif" font-size="10.00" fill="white">hexastack_ai.</text>
<text text-anchor="middle" x="352.63" y="-498.97" font-family="Helvetica,sans-Serif" font-size="10.00" fill="white">adapters.</text>
<text text-anchor="middle" x="352.63" y="-487.97" font-family="Helvetica,sans-Serif" font-size="10.00" fill="white">pydantic_ai</text>
</g>
<!-- hexastack_ai_adapters_pydantic_ai&#45;&gt;hexastack_ai_adapters -->
<g id="edge5" class="edge">
<title>hexastack_ai_adapters_pydantic_ai&#45;&gt;hexastack_ai_adapters</title><style>.edge>path:hover{stroke-width:8}</style>
<path fill="none" stroke="black" d="M352.63,-480.65C352.63,-472.87 352.63,-463.81 352.63,-455.41"/>
<polygon fill="blue" stroke="black" points="356.13,-455.28 352.63,-445.28 349.13,-455.29 356.13,-455.28"/>
</g>
<!-- hexastack_ai_domain -->
<g id="node5" class="node">
<title>hexastack_ai_domain</title><style>.edge>path:hover{stroke-width:8}</style>
<polygon fill="blue" stroke="black" points="432.63,-630.97 348.63,-630.97 348.63,-594.97 432.63,-594.97 432.63,-630.97"/>
<text text-anchor="middle" x="390.63" y="-615.97" font-family="Helvetica,sans-Serif" font-size="10.00" fill="white">hexastack_ai.</text>
<text text-anchor="middle" x="390.63" y="-604.97" font-family="Helvetica,sans-Serif" font-size="10.00" fill="white">domain</text>
</g>
<!-- hexastack_ai_domain&#45;&gt;hexastack_ai -->
<g id="edge6" class="edge">
<title>hexastack_ai_domain&#45;&gt;hexastack_ai</title><style>.edge>path:hover{stroke-width:8}</style>
<path fill="none" stroke="black" d="M422.63,-557.97C422.06,-500.19 422.63,-485.74 422.63,-427.97 422.63,-427.97 422.63,-427.97 422.63,-342.97 422.63,-265.21 447.06,-241.83 422.63,-168"/>
<path fill="none" stroke="black" d="M422.63,-166C412.99,-140.97 388.6,-123.97 365.55,-113"/>
<polygon fill="blue" stroke="black" points="366.69,-109.68 356.13,-108.8 363.84,-116.07 366.69,-109.68"/>
</g>
<!-- hexastack_ai_domain&#45;&gt;hexastack_ai_adapters_litellm -->
<g id="edge7" class="edge">
<title>hexastack_ai_domain&#45;&gt;hexastack_ai_adapters_litellm</title><style>.edge>path:hover{stroke-width:8}</style>
<path fill="none" stroke="black" d="M422.63,-166C411.45,-136.97 433.73,-125.06 422.63,-96"/>
<path fill="none" stroke="black" d="M422.63,-94C416.92,-79.04 408.87,-63.21 401.66,-50.17"/>
<polygon fill="blue" stroke="black" points="404.56,-48.2 396.59,-41.22 398.47,-51.65 404.56,-48.2"/>
</g>
<!-- hexastack_ai_domain&#45;&gt;hexastack_ai_adapters_pydantic_ai -->
<g id="edge8" class="edge">
<title>hexastack_ai_domain&#45;&gt;hexastack_ai_adapters_pydantic_ai</title><style>.edge>path:hover{stroke-width:8}</style>
<path fill="none" stroke="black" d="M407.48,-594.85C415.26,-585.14 422.76,-572.29 422.63,-558.97"/>
<path fill="none" stroke="black" d="M422.63,-557.97C422.49,-544.24 414.08,-533.37 403.14,-525.02"/>
<polygon fill="blue" stroke="black" points="405.04,-522.09 394.8,-519.38 401.12,-527.89 405.04,-522.09"/>
</g>
<!-- hexastack_ai_domain_exceptions -->
<g id="node6" class="node">
<title>hexastack_ai_domain_exceptions</title><style>.edge>path:hover{stroke-width:8}</style>
<ellipse fill="#ce3b3b" stroke="black" cx="390.63" cy="-695.96" rx="59.29" ry="28.98"/>
<text text-anchor="middle" x="390.63" y="-704.46" font-family="Helvetica,sans-Serif" font-size="10.00" fill="#ffffff">hexastack_ai.</text>
<text text-anchor="middle" x="390.63" y="-693.46" font-family="Helvetica,sans-Serif" font-size="10.00" fill="#ffffff">domain.</text>
<text text-anchor="middle" x="390.63" y="-682.46" font-family="Helvetica,sans-Serif" font-size="10.00" fill="#ffffff">exceptions</text>
</g>
<!-- hexastack_ai_domain_exceptions&#45;&gt;hexastack_ai_adapters_litellm -->
<g id="edge9" class="edge">
<title>hexastack_ai_domain_exceptions&#45;&gt;hexastack_ai_adapters_litellm</title><style>.edge>path:hover{stroke-width:8}</style>
<path fill="none" stroke="black" d="M415.15,-669.27C424.59,-658.21 434.74,-644.68 441.63,-630.97 456.48,-601.39 460.63,-592.06 460.63,-558.97 460.63,-558.97 460.63,-558.97 460.63,-248.99 460.63,-178.93 447.63,-161.45 422.63,-96"/>
</g>
<!-- hexastack_ai_domain_exceptions&#45;&gt;hexastack_ai_adapters_pydantic_ai -->
<g id="edge10" class="edge">
<title>hexastack_ai_domain_exceptions&#45;&gt;hexastack_ai_adapters_pydantic_ai</title><style>.edge>path:hover{stroke-width:8}</style>
<path fill="none" stroke="black" d="M364.01,-669.74C354.38,-658.85 344.65,-645.31 339.63,-630.97 328.26,-598.45 335.21,-558.69 342.6,-532.09"/>
<polygon fill="#ce3b3b" stroke="black" points="346.03,-532.82 345.52,-522.24 339.32,-530.83 346.03,-532.82"/>
</g>
<!-- hexastack_ai_domain_exceptions&#45;&gt;hexastack_ai_domain -->
<g id="edge11" class="edge">
<title>hexastack_ai_domain_exceptions&#45;&gt;hexastack_ai_domain</title><style>.edge>path:hover{stroke-width:8}</style>
<path fill="none" stroke="black" d="M390.63,-666.63C390.63,-658.38 390.63,-649.39 390.63,-641.22"/>
<polygon fill="#ce3b3b" stroke="black" points="394.13,-641.06 390.63,-631.06 387.13,-641.06 394.13,-641.06"/>
</g>
<!-- hexastack_ai_infra -->
<g id="node7" class="node">
<title>hexastack_ai_infra</title><style>.edge>path:hover{stroke-width:8}</style>
<polygon fill="blue" stroke="black" points="218.63,-185 134.63,-185 134.63,-149 218.63,-149 218.63,-185"/>
<text text-anchor="middle" x="176.63" y="-170" font-family="Helvetica,sans-Serif" font-size="10.00" fill="white">hexastack_ai.</text>
<text text-anchor="middle" x="176.63" y="-159" font-family="Helvetica,sans-Serif" font-size="10.00" fill="white">infra</text>
</g>
<!-- hexastack_ai_infra&#45;&gt;hexastack_ai -->
<g id="edge12" class="edge">
<title>hexastack_ai_infra&#45;&gt;hexastack_ai</title><style>.edge>path:hover{stroke-width:8}</style>
<path fill="none" stroke="black" d="M210.63,-148.88C229.23,-139.51 252.46,-127.81 272.33,-117.8"/>
<polygon fill="blue" stroke="black" points="274.14,-120.81 281.49,-113.19 270.99,-114.56 274.14,-120.81"/>
</g>
<!-- hexastack_ai_infra&#45;&gt;hexastack_ai_adapters_litellm -->
<g id="edge13" class="edge">
<title>hexastack_ai_infra&#45;&gt;hexastack_ai_adapters_litellm</title><style>.edge>path:hover{stroke-width:8}</style>
<path fill="none" stroke="black" d="M134.31,-164.67C82.64,-160.84 3.7,-146.75 17.63,-96"/>
</g>
<!-- hexastack_ai_infra_bootstrap&#45;&gt;hexastack_ai_infra -->
<g id="edge14" class="edge">
<title>hexastack_ai_infra_bootstrap&#45;&gt;hexastack_ai_infra</title><style>.edge>path:hover{stroke-width:8}</style>
<path fill="none" stroke="black" d="M241.05,-229.39C229.33,-218.22 214.55,-204.14 202.11,-192.28"/>
<polygon fill="blue" stroke="black" points="204.36,-189.59 194.71,-185.23 199.53,-194.66 204.36,-189.59"/>
</g>
<!-- hexastack_ai_infra_config -->
<g id="node9" class="node">
<title>hexastack_ai_infra_config</title><style>.edge>path:hover{stroke-width:8}</style>
<ellipse fill="#ce3b3b" stroke="black" cx="191.63" cy="-343.97" rx="59.29" ry="28.98"/>
<text text-anchor="middle" x="191.63" y="-352.47" font-family="Helvetica,sans-Serif" font-size="10.00" fill="#ffffff">hexastack_ai.</text>
<text text-anchor="middle" x="191.63" y="-341.47" font-family="Helvetica,sans-Serif" font-size="10.00" fill="#ffffff">infra.</text>
<text text-anchor="middle" x="191.63" y="-330.47" font-family="Helvetica,sans-Serif" font-size="10.00" fill="#ffffff">config</text>
</g>
<!-- hexastack_ai_infra_config&#45;&gt;hexastack_ai_adapters_litellm -->
<g id="edge15" class="edge">
<title>hexastack_ai_infra_config&#45;&gt;hexastack_ai_adapters_litellm</title><style>.edge>path:hover{stroke-width:8}</style>
<path fill="none" stroke="black" d="M135.09,-334.43C101.03,-326.19 59.88,-310.13 36.63,-278.98 -12.29,-213.47 -4.01,-174.85 17.63,-96"/>
<path fill="none" stroke="black" d="M17.63,-94C35.7,-34 235.05,-23.26 332.13,-21.61"/>
<polygon fill="#ce3b3b" stroke="black" points="332.37,-25.11 342.32,-21.46 332.27,-18.11 332.37,-25.11"/>
</g>
<!-- hexastack_ai_infra_config&#45;&gt;hexastack_ai_infra -->
<g id="edge16" class="edge">
<title>hexastack_ai_infra_config&#45;&gt;hexastack_ai_infra</title><style>.edge>path:hover{stroke-width:8}</style>
<path fill="none" stroke="black" d="M189.22,-314.86C186.41,-282.05 181.79,-228.15 178.99,-195.58"/>
<polygon fill="#ce3b3b" stroke="black" points="182.46,-195.07 178.12,-185.41 175.49,-195.67 182.46,-195.07"/>
</g>
<!-- hexastack_ai_infra_config&#45;&gt;hexastack_ai_infra_bootstrap -->
<g id="edge17" class="edge">
<title>hexastack_ai_infra_config&#45;&gt;hexastack_ai_infra_bootstrap</title><style>.edge>path:hover{stroke-width:8}</style>
<path fill="none" stroke="black" d="M211.88,-316.37C220.84,-304.58 231.39,-290.72 240.46,-278.8"/>
<polygon fill="#ce3b3b" stroke="black" points="243.49,-280.6 246.76,-270.52 237.92,-276.36 243.49,-280.6"/>
</g>
<!-- hexastack_ai_infra_tools -->
<g id="node10" class="node">
<title>hexastack_ai_infra_tools</title><style>.edge>path:hover{stroke-width:8}</style>
<ellipse fill="#b65353" stroke="black" cx="104.63" cy="-249.99" rx="59.29" ry="28.98"/>
<text text-anchor="middle" x="104.63" y="-258.49" font-family="Helvetica,sans-Serif" font-size="10.00" fill="#ffffff">hexastack_ai.</text>
<text text-anchor="middle" x="104.63" y="-247.49" font-family="Helvetica,sans-Serif" font-size="10.00" fill="#ffffff">infra.</text>
<text text-anchor="middle" x="104.63" y="-236.49" font-family="Helvetica,sans-Serif" font-size="10.00" fill="#ffffff">tools</text>
</g>
<!-- hexastack_ai_infra_tools&#45;&gt;hexastack_ai_infra -->
<g id="edge18" class="edge">
<title>hexastack_ai_infra_tools&#45;&gt;hexastack_ai_infra</title><style>.edge>path:hover{stroke-width:8}</style>
<path fill="none" stroke="black" d="M127.81,-222.92C136.41,-213.24 146.15,-202.29 154.64,-192.73"/>
<polygon fill="#b65353" stroke="black" points="157.41,-194.89 161.44,-185.09 152.18,-190.23 157.41,-194.89"/>
</g>
</g>
</svg>
