<?xml version="1.0" encoding="UTF-8" standalone="no"?>
<!DOCTYPE svg PUBLIC "-//W3C//DTD SVG 1.1//EN"
 "http://www.w3.org/Graphics/SVG/1.1/DTD/svg11.dtd">
<!-- Generated by graphviz version 2.43.0 (0)
 -->
<!-- Title: G Pages: 1 -->
<svg width="1103pt" height="1254pt"
 viewBox="0.00 0.00 1103.23 1253.95" xmlns="http://www.w3.org/2000/svg" xmlns:xlink="http://www.w3.org/1999/xlink">
<g id="graph0" class="graph" transform="scale(1 1) rotate(0) translate(4 1249.95)">
<title>G</title><style>.edge>path:hover{stroke-width:8}</style>
<polygon fill="white" stroke="transparent" points="-4,4 -4,-1249.95 1099.23,-1249.95 1099.23,4 -4,4"/>
<!-- hexastack_cli -->
<g id="node1" class="node">
<title>hexastack_cli</title><style>.edge>path:hover{stroke-width:8}</style>
<polygon fill="blue" stroke="black" points="295.03,-36 212.03,-36 212.03,0 295.03,0 295.03,-36"/>
<text text-anchor="middle" x="253.53" y="-15.5" font-family="Helvetica,sans-Serif" font-size="10.00" fill="white">hexastack_cli</text>
</g>
<!-- hexastack_cli_adapters -->
<g id="node2" class="node">
<title>hexastack_cli_adapters</title><style>.edge>path:hover{stroke-width:8}</style>
<polygon fill="blue" stroke="black" points="441.53,-427.98 355.53,-427.98 355.53,-391.98 441.53,-391.98 441.53,-427.98"/>
<text text-anchor="middle" x="398.53" y="-412.98" font-family="Helvetica,sans-Serif" font-size="10.00" fill="white">hexastack_cli.</text>
<text text-anchor="middle" x="398.53" y="-401.98" font-family="Helvetica,sans-Serif" font-size="10.00" fill="white">adapters</text>
</g>
<!-- hexastack_cli_adapters&#45;&gt;hexastack_cli -->
<g id="edge1" class="edge">
<title>hexastack_cli_adapters&#45;&gt;hexastack_cli</title><style>.edge>path:hover{stroke-width:8}</style>
<path fill="none" stroke="black" d="M391.57,-391.92C384.88,-375.53 374.5,-350.08 365.53,-327.99"/>
<path fill="none" stroke="black" d="M365.53,-325.99C353.68,-296.84 291.84,-244.15 270.53,-221 247.63,-196.13 218.16,-199.3 218.53,-165.5"/>
</g>
<!-- hexastack_cli_infra_app -->
<g id="node9" class="node">
<title>hexastack_cli_infra_app</title><style>.edge>path:hover{stroke-width:8}</style>
<polygon fill="blue" stroke="black" points="408.53,-262 322.53,-262 322.53,-221 408.53,-221 408.53,-262"/>
<text text-anchor="middle" x="365.53" y="-250" font-family="Helvetica,sans-Serif" font-size="10.00" fill="white">hexastack_cli.</text>
<text text-anchor="middle" x="365.53" y="-239" font-family="Helvetica,sans-Serif" font-size="10.00" fill="white">infra.</text>
<text text-anchor="middle" x="365.53" y="-228" font-family="Helvetica,sans-Serif" font-size="10.00" fill="white">app</text>
</g>
<!-- hexastack_cli_adapters&#45;&gt;hexastack_cli_infra_app -->
<g id="edge2" class="edge">
<title>hexastack_cli_adapters&#45;&gt;hexastack_cli_infra_app</title><style>.edge>path:hover{stroke-width:8}</style>
<path fill="none" stroke="black" d="M365.53,-325.99C358.68,-309.14 358.55,-288.74 360.19,-272.33"/>
<polygon fill="blue" stroke="black" points="363.69,-272.55 361.47,-262.19 356.74,-271.67 363.69,-272.55"/>
</g>
<!-- hexastack_cli_infra_autodiscovery -->
<g id="node10" class="node">
<title>hexastack_cli_infra_autodiscovery</title><style>.edge>path:hover{stroke-width:8}</style>
<polygon fill="blue" stroke="black" points="550.53,-262 464.53,-262 464.53,-221 550.53,-221 550.53,-262"/>
<text text-anchor="middle" x="507.53" y="-250" font-family="Helvetica,sans-Serif" font-size="10.00" fill="white">hexastack_cli.</text>
<text text-anchor="middle" x="507.53" y="-239" font-family="Helvetica,sans-Serif" font-size="10.00" fill="white">infra.</text>
<text text-anchor="middle" x="507.53" y="-228" font-family="Helvetica,sans-Serif" font-size="10.00" fill="white">autodiscovery</text>
</g>
<!-- hexastack_cli_adapters&#45;&gt;hexastack_cli_infra_autodiscovery -->
<g id="edge3" class="edge">
<title>hexastack_cli_adapters&#45;&gt;hexastack_cli_infra_autodiscovery</title><style>.edge>path:hover{stroke-width:8}</style>
<path fill="none" stroke="black" d="M409.78,-391.79C428.51,-363.19 466.24,-305.57 488.95,-270.87"/>
<polygon fill="blue" stroke="black" points="492.11,-272.44 494.66,-262.16 486.25,-268.6 492.11,-272.44"/>
</g>
<!-- hexastack_cli_adapters_presenter -->
<g id="node3" class="node">
<title>hexastack_cli_adapters_presenter</title><style>.edge>path:hover{stroke-width:8}</style>
<polygon fill="blue" stroke="black" points="370.53,-581.98 284.53,-581.98 284.53,-540.98 370.53,-540.98 370.53,-581.98"/>
<text text-anchor="middle" x="327.53" y="-569.98" font-family="Helvetica,sans-Serif" font-size="10.00" fill="white">hexastack_cli.</text>
<text text-anchor="middle" x="327.53" y="-558.98" font-family="Helvetica,sans-Serif" font-size="10.00" fill="white">adapters.</text>
<text text-anchor="middle" x="327.53" y="-547.98" font-family="Helvetica,sans-Serif" font-size="10.00" fill="white">presenter</text>
</g>
<!-- hexastack_cli_adapters_presenter&#45;&gt;hexastack_cli_adapters -->
<g id="edge4" class="edge">
<title>hexastack_cli_adapters_presenter&#45;&gt;hexastack_cli_adapters</title><style>.edge>path:hover{stroke-width:8}</style>
<path fill="none" stroke="black" d="M336.81,-540.94C349.37,-514.49 371.83,-467.19 385.92,-437.54"/>
<polygon fill="blue" stroke="black" points="389.22,-438.75 390.35,-428.21 382.89,-435.75 389.22,-438.75"/>
</g>
<!-- hexastack_cli_adapters_routing -->
<g id="node4" class="node">
<title>hexastack_cli_adapters_routing</title><style>.edge>path:hover{stroke-width:8}</style>
<polygon fill="blue" stroke="black" points="517.53,-504.98 431.53,-504.98 431.53,-463.98 517.53,-463.98 517.53,-504.98"/>
<text text-anchor="middle" x="474.53" y="-492.98" font-family="Helvetica,sans-Serif" font-size="10.00" fill="white">hexastack_cli.</text>
<text text-anchor="middle" x="474.53" y="-481.98" font-family="Helvetica,sans-Serif" font-size="10.00" fill="white">adapters.</text>
<text text-anchor="middle" x="474.53" y="-470.98" font-family="Helvetica,sans-Serif" font-size="10.00" fill="white">routing</text>
</g>
<!-- hexastack_cli_adapters_presenter&#45;&gt;hexastack_cli_adapters_routing -->
<g id="edge5" class="edge">
<title>hexastack_cli_adapters_presenter&#45;&gt;hexastack_cli_adapters_routing</title><style>.edge>path:hover{stroke-width:8}</style>
<path fill="none" stroke="black" d="M365.77,-540.97C384.49,-531.42 407.22,-519.82 427.05,-509.71"/>
<polygon fill="blue" stroke="black" points="428.91,-512.69 436.23,-505.02 425.73,-506.45 428.91,-512.69"/>
</g>
<!-- hexastack_cli_adapters_presenter&#45;&gt;hexastack_cli_infra_app -->
<g id="edge6" class="edge">
<title>hexastack_cli_adapters_presenter&#45;&gt;hexastack_cli_infra_app</title><style>.edge>path:hover{stroke-width:8}</style>
<path fill="none" stroke="black" d="M331.4,-540.93C333.59,-525.34 334.65,-503.25 327.53,-485.48"/>
<path fill="none" stroke="black" d="M327.53,-483.48C315.54,-453.57 317.52,-441.61 327.53,-410.98"/>
</g>
<!-- hexastack_cli_adapters_routing&#45;&gt;hexastack_cli_adapters -->
<g id="edge7" class="edge">
<title>hexastack_cli_adapters_routing&#45;&gt;hexastack_cli_adapters</title><style>.edge>path:hover{stroke-width:8}</style>
<path fill="none" stroke="black" d="M453.76,-463.67C444.54,-454.87 433.59,-444.43 423.89,-435.18"/>
<polygon fill="blue" stroke="black" points="426.08,-432.43 416.43,-428.06 421.25,-437.5 426.08,-432.43"/>
</g>
<!-- hexastack_cli_adapters_routing&#45;&gt;hexastack_cli_infra_autodiscovery -->
<g id="edge8" class="edge">
<title>hexastack_cli_adapters_routing&#45;&gt;hexastack_cli_infra_autodiscovery</title><style>.edge>path:hover{stroke-width:8}</style>
<path fill="none" stroke="black" d="M489.83,-463.67C507.27,-439.72 534.77,-397.43 545.53,-355.98 552.01,-331.04 553.15,-322.62 545.53,-298 542.5,-288.23 537.1,-278.65 531.3,-270.27"/>
<polygon fill="blue" stroke="black" points="533.96,-267.98 525.2,-262.02 528.33,-272.14 533.96,-267.98"/>
</g>
<!-- hexastack_cli_domain -->
<g id="node5" class="node">
<title>hexastack_cli_domain</title><style>.edge>path:hover{stroke-width:8}</style>
<polygon fill="blue" stroke="black" points="114.53,-741.97 28.53,-741.97 28.53,-705.97 114.53,-705.97 114.53,-741.97"/>
<text text-anchor="middle" x="71.53" y="-726.97" font-family="Helvetica,sans-Serif" font-size="10.00" fill="white">hexastack_cli.</text>
<text text-anchor="middle" x="71.53" y="-715.97" font-family="Helvetica,sans-Serif" font-size="10.00" fill="white">domain</text>
</g>
<!-- hexastack_cli_domain&#45;&gt;hexastack_cli -->
<g id="edge9" class="edge">
<title>hexastack_cli_domain&#45;&gt;hexastack_cli</title><style>.edge>path:hover{stroke-width:8}</style>
<path fill="none" stroke="black" d="M70.58,-705.66C69.88,-688.74 69.37,-662.28 71.53,-639.48"/>
</g>
<!-- hexastack_cli_domain&#45;&gt;hexastack_cli_adapters_presenter -->
<g id="edge10" class="edge">
<title>hexastack_cli_domain&#45;&gt;hexastack_cli_adapters_presenter</title><style>.edge>path:hover{stroke-width:8}</style>
<path fill="none" stroke="black" d="M114.68,-710.04C184.28,-688.95 314.11,-648.61 319.53,-639.48"/>
<path fill="none" stroke="black" d="M319.53,-637.48C327.55,-623.98 329.81,-606.68 329.95,-592.09"/>
<polygon fill="blue" stroke="black" points="333.45,-591.97 329.73,-582.05 326.45,-592.12 333.45,-591.97"/>
</g>
<!-- hexastack_cli_infra_config -->
<g id="node12" class="node">
<title>hexastack_cli_infra_config</title><style>.edge>path:hover{stroke-width:8}</style>
<polygon fill="blue" stroke="black" points="299.53,-347.49 213.53,-347.49 213.53,-306.49 299.53,-306.49 299.53,-347.49"/>
<text text-anchor="middle" x="256.53" y="-335.49" font-family="Helvetica,sans-Serif" font-size="10.00" fill="white">hexastack_cli.</text>
<text text-anchor="middle" x="256.53" y="-324.49" font-family="Helvetica,sans-Serif" font-size="10.00" fill="white">infra.</text>
<text text-anchor="middle" x="256.53" y="-313.49" font-family="Helvetica,sans-Serif" font-size="10.00" fill="white">config</text>
</g>
<!-- hexastack_cli_domain&#45;&gt;hexastack_cli_infra_config -->
<g id="edge11" class="edge">
<title>hexastack_cli_domain&#45;&gt;hexastack_cli_infra_config</title><style>.edge>path:hover{stroke-width:8}</style>
<path fill="none" stroke="black" d="M180.53,-560.48C176.33,-516.49 182.96,-502.56 204.53,-463.98 220.63,-435.18 248.82,-443.07 256.53,-410.98"/>
<path fill="none" stroke="black" d="M256.53,-408.98C259.84,-392.17 260,-373.01 259.25,-357.54"/>
<polygon fill="blue" stroke="black" points="262.74,-357.27 258.62,-347.51 255.76,-357.71 262.74,-357.27"/>
</g>
<!-- hexastack_cli_infra_options -->
<g id="node14" class="node">
<title>hexastack_cli_infra_options</title><style>.edge>path:hover{stroke-width:8}</style>
<polygon fill="blue" stroke="black" points="152.53,-504.98 66.53,-504.98 66.53,-463.98 152.53,-463.98 152.53,-504.98"/>
<text text-anchor="middle" x="109.53" y="-492.98" font-family="Helvetica,sans-Serif" font-size="10.00" fill="white">hexastack_cli.</text>
<text text-anchor="middle" x="109.53" y="-481.98" font-family="Helvetica,sans-Serif" font-size="10.00" fill="white">infra.</text>
<text text-anchor="middle" x="109.53" y="-470.98" font-family="Helvetica,sans-Serif" font-size="10.00" fill="white">options</text>
</g>
<!-- hexastack_cli_domain&#45;&gt;hexastack_cli_infra_options -->
<g id="edge12" class="edge">
<title>hexastack_cli_domain&#45;&gt;hexastack_cli_infra_options</title><style>.edge>path:hover{stroke-width:8}</style>
<path fill="none" stroke="black" d="M96.29,-705.95C132.36,-678.83 193.74,-622.69 180.53,-562.48"/>
<path fill="none" stroke="black" d="M180.53,-560.48C178.66,-540.9 165.36,-524.33 150.77,-511.79"/>
<polygon fill="blue" stroke="black" points="152.58,-508.76 142.59,-505.24 148.21,-514.22 152.58,-508.76"/>
</g>
<!-- hexastack_cli_domain_config -->
<g id="node6" class="node">
<title>hexastack_cli_domain_config</title><style>.edge>path:hover{stroke-width:8}</style>
<ellipse fill="#cc3333" stroke="black" cx="244.53" cy="-817.96" rx="60.62" ry="28.98"/>
<text text-anchor="middle" x="244.53" y="-826.46" font-family="Helvetica,sans-Serif" font-size="10.00" fill="#ffffff">hexastack_cli.</text>
<text text-anchor="middle" x="244.53" y="-815.46" font-family="Helvetica,sans-Serif" font-size="10.00" fill="#ffffff">domain.</text>
<text text-anchor="middle" x="244.53" y="-804.46" font-family="Helvetica,sans-Serif" font-size="10.00" fill="#ffffff">config</text>
</g>
<!-- hexastack_cli_domain_config&#45;&gt;hexastack_cli_domain -->
<g id="edge13" class="edge">
<title>hexastack_cli_domain_config&#45;&gt;hexastack_cli_domain</title><style>.edge>path:hover{stroke-width:8}</style>
<path fill="none" stroke="black" d="M204.84,-795.85C177.23,-781.18 140.53,-761.66 112.62,-746.82"/>
<polygon fill="#cc3333" stroke="black" points="113.99,-743.59 103.52,-741.98 110.71,-749.77 113.99,-743.59"/>
</g>
<!-- hexastack_cli_domain_config&#45;&gt;hexastack_cli_infra_config -->
<g id="edge14" class="edge">
<title>hexastack_cli_domain_config&#45;&gt;hexastack_cli_infra_config</title><style>.edge>path:hover{stroke-width:8}</style>
<path fill="none" stroke="black" d="M271.12,-791.58C286.33,-773.94 301.35,-749.3 295.53,-724.97"/>
<path fill="none" stroke="black" d="M295.53,-722.97C263.01,-587.07 229.55,-548.1 256.53,-410.98"/>
</g>
<!-- hexastack_cli_domain_options -->
<g id="node7" class="node">
<title>hexastack_cli_domain_options</title><style>.edge>path:hover{stroke-width:8}</style>
<ellipse fill="#e72222" stroke="black" cx="66.53" cy="-817.96" rx="60.62" ry="28.98"/>
<text text-anchor="middle" x="66.53" y="-826.46" font-family="Helvetica,sans-Serif" font-size="10.00" fill="#ffffff">hexastack_cli.</text>
<text text-anchor="middle" x="66.53" y="-815.46" font-family="Helvetica,sans-Serif" font-size="10.00" fill="#ffffff">domain.</text>
<text text-anchor="middle" x="66.53" y="-804.46" font-family="Helvetica,sans-Serif" font-size="10.00" fill="#ffffff">options</text>
</g>
<!-- hexastack_cli_domain_options&#45;&gt;hexastack_cli -->
<g id="edge15" class="edge">
<title>hexastack_cli_domain_options&#45;&gt;hexastack_cli</title><style>.edge>path:hover{stroke-width:8}</style>
<path fill="none" stroke="black" d="M35.22,-792.84C17.17,-775.92 -1.59,-751.62 0.53,-724.97"/>
<path fill="none" stroke="black" d="M0.53,-722.97C4.38,-674.42 66.94,-687.98 71.53,-639.48"/>
<path fill="none" stroke="black" d="M71.53,-637.48C78.82,-560.47 38.59,-538.99 57.53,-463.98 75.98,-390.91 217.22,-240.85 218.53,-165.5"/>
<path fill="none" stroke="black" d="M218.53,-163.5C214.47,-121.44 229.91,-74.09 241.58,-45.41"/>
<polygon fill="#e72222" stroke="black" points="244.85,-46.65 245.51,-36.08 238.4,-43.94 244.85,-46.65"/>
</g>
<!-- hexastack_cli_domain_options&#45;&gt;hexastack_cli_adapters_presenter -->
<g id="edge16" class="edge">
<title>hexastack_cli_domain_options&#45;&gt;hexastack_cli_adapters_presenter</title><style>.edge>path:hover{stroke-width:8}</style>
<path fill="none" stroke="black" d="M112.59,-798.92C171.53,-773.2 271.72,-719.98 319.53,-639.48"/>
</g>
<!-- hexastack_cli_domain_options&#45;&gt;hexastack_cli_domain -->
<g id="edge17" class="edge">
<title>hexastack_cli_domain_options&#45;&gt;hexastack_cli_domain</title><style>.edge>path:hover{stroke-width:8}</style>
<path fill="none" stroke="black" d="M68.06,-788.86C68.68,-777.33 69.41,-764.02 70.03,-752.54"/>
<polygon fill="#e72222" stroke="black" points="73.54,-752.4 70.59,-742.22 66.55,-752.02 73.54,-752.4"/>
</g>
<!-- hexastack_cli_domain_options&#45;&gt;hexastack_cli_infra_options -->
<g id="edge18" class="edge">
<title>hexastack_cli_domain_options&#45;&gt;hexastack_cli_infra_options</title><style>.edge>path:hover{stroke-width:8}</style>
<path fill="none" stroke="black" d="M0.53,-722.97C5.22,-675.92 58.66,-697.89 85.53,-658.98 115.26,-615.94 115.87,-552.41 113.07,-515.35"/>
<polygon fill="#e72222" stroke="black" points="116.54,-514.85 112.17,-505.2 109.57,-515.47 116.54,-514.85"/>
</g>
<!-- hexastack_cli_infra -->
<g id="node8" class="node">
<title>hexastack_cli_infra</title><style>.edge>path:hover{stroke-width:8}</style>
<polygon fill="blue" stroke="black" points="332.53,-108 246.53,-108 246.53,-72 332.53,-72 332.53,-108"/>
<text text-anchor="middle" x="289.53" y="-93" font-family="Helvetica,sans-Serif" font-size="10.00" fill="white">hexastack_cli.</text>
<text text-anchor="middle" x="289.53" y="-82" font-family="Helvetica,sans-Serif" font-size="10.00" fill="white">infra</text>
</g>
<!-- hexastack_cli_infra&#45;&gt;hexastack_cli -->
<g id="edge19" class="edge">
<title>hexastack_cli_infra&#45;&gt;hexastack_cli</title><style>.edge>path:hover{stroke-width:8}</style>
<path fill="none" stroke="black" d="M280.63,-71.7C276.53,-63.73 271.58,-54.1 267.04,-45.26"/>
<polygon fill="blue" stroke="black" points="270.01,-43.4 262.33,-36.1 263.79,-46.6 270.01,-43.4"/>
</g>
<!-- hexastack_cli_infra_app&#45;&gt;hexastack_cli_infra -->
<g id="edge20" class="edge">
<title>hexastack_cli_infra_app&#45;&gt;hexastack_cli_infra</title><style>.edge>path:hover{stroke-width:8}</style>
<path fill="none" stroke="black" d="M322.4,-226.96C295.43,-215.61 264.36,-196.22 256.53,-165.5"/>
</g>
<!-- hexastack_cli_infra_bootstrap -->
<g id="node11" class="node">
<title>hexastack_cli_infra_bootstrap</title><style>.edge>path:hover{stroke-width:8}</style>
<polygon fill="blue" stroke="black" points="370.53,-185 284.53,-185 284.53,-144 370.53,-144 370.53,-185"/>
<text text-anchor="middle" x="327.53" y="-173" font-family="Helvetica,sans-Serif" font-size="10.00" fill="white">hexastack_cli.</text>
<text text-anchor="middle" x="327.53" y="-162" font-family="Helvetica,sans-Serif" font-size="10.00" fill="white">infra.</text>
<text text-anchor="middle" x="327.53" y="-151" font-family="Helvetica,sans-Serif" font-size="10.00" fill="white">bootstrap</text>
</g>
<!-- hexastack_cli_infra_app&#45;&gt;hexastack_cli_infra_bootstrap -->
<g id="edge21" class="edge">
<title>hexastack_cli_infra_app&#45;&gt;hexastack_cli_infra_bootstrap</title><style>.edge>path:hover{stroke-width:8}</style>
<path fill="none" stroke="black" d="M355.54,-220.79C351.4,-212.61 346.51,-202.96 341.98,-194.03"/>
<polygon fill="blue" stroke="black" points="345.09,-192.41 337.45,-185.07 338.84,-195.58 345.09,-192.41"/>
</g>
<!-- hexastack_cli_infra_autodiscovery&#45;&gt;hexastack_cli_infra -->
<g id="edge22" class="edge">
<title>hexastack_cli_infra_autodiscovery&#45;&gt;hexastack_cli_infra</title><style>.edge>path:hover{stroke-width:8}</style>
<path fill="none" stroke="black" d="M464.45,-225.12C459.77,-223.64 455.07,-222.24 450.53,-221 364.01,-197.4 278.7,-252.4 256.53,-165.5"/>
</g>
<!-- hexastack_cli_infra_autodiscovery&#45;&gt;hexastack_cli_infra_bootstrap -->
<g id="edge23" class="edge">
<title>hexastack_cli_infra_autodiscovery&#45;&gt;hexastack_cli_infra_bootstrap</title><style>.edge>path:hover{stroke-width:8}</style>
<path fill="none" stroke="black" d="M464.41,-222.54C439.01,-211.95 406.7,-198.49 379.85,-187.3"/>
<polygon fill="blue" stroke="black" points="381.18,-184.06 370.6,-183.45 378.49,-190.52 381.18,-184.06"/>
</g>
<!-- hexastack_cli_infra_bootstrap&#45;&gt;hexastack_cli_infra -->
<g id="edge24" class="edge">
<title>hexastack_cli_infra_bootstrap&#45;&gt;hexastack_cli_infra</title><style>.edge>path:hover{stroke-width:8}</style>
<path fill="none" stroke="black" d="M317.14,-143.69C312.88,-135.56 307.89,-126.03 303.33,-117.33"/>
<polygon fill="blue" stroke="black" points="306.35,-115.55 298.61,-108.32 300.15,-118.8 306.35,-115.55"/>
</g>
<!-- hexastack_cli_infra_config&#45;&gt;hexastack_cli_infra -->
<g id="edge25" class="edge">
<title>hexastack_cli_infra_config&#45;&gt;hexastack_cli_infra</title><style>.edge>path:hover{stroke-width:8}</style>
<path fill="none" stroke="black" d="M254.16,-306.17C252.68,-289.09 251.84,-263.88 256.53,-242.5"/>
<path fill="none" stroke="black" d="M256.53,-240.5C263.67,-207.94 264.77,-197.8 256.53,-165.5"/>
</g>
<!-- hexastack_cli_infra_config&#45;&gt;hexastack_cli_infra_app -->
<g id="edge26" class="edge">
<title>hexastack_cli_infra_config&#45;&gt;hexastack_cli_infra_app</title><style>.edge>path:hover{stroke-width:8}</style>
<path fill="none" stroke="black" d="M282.08,-306.42C296.87,-295.09 315.67,-280.69 331.68,-268.43"/>
<polygon fill="blue" stroke="black" points="333.94,-271.1 339.76,-262.24 329.69,-265.54 333.94,-271.1"/>
</g>
<!-- hexastack_cli_infra_config&#45;&gt;hexastack_cli_infra_bootstrap -->
<g id="edge27" class="edge">
<title>hexastack_cli_infra_config&#45;&gt;hexastack_cli_infra_bootstrap</title><style>.edge>path:hover{stroke-width:8}</style>
<path fill="none" stroke="black" d="M256.53,-240.5C260.78,-221.14 274.59,-204.52 288.92,-191.88"/>
<polygon fill="blue" stroke="black" points="291.42,-194.35 296.88,-185.27 286.95,-188.97 291.42,-194.35"/>
</g>
<!-- hexastack_cli_infra_decorators -->
<g id="node13" class="node">
<title>hexastack_cli_infra_decorators</title><style>.edge>path:hover{stroke-width:8}</style>
<ellipse fill="#8b2222" stroke="black" cx="658.53" cy="-326.99" rx="60.62" ry="28.98"/>
<text text-anchor="middle" x="658.53" y="-335.49" font-family="Helvetica,sans-Serif" font-size="10.00" fill="#ffffff">hexastack_cli.</text>
<text text-anchor="middle" x="658.53" y="-324.49" font-family="Helvetica,sans-Serif" font-size="10.00" fill="#ffffff">infra.</text>
<text text-anchor="middle" x="658.53" y="-313.49" font-family="Helvetica,sans-Serif" font-size="10.00" fill="#ffffff">decorators</text>
</g>
<!-- hexastack_cli_infra_decorators&#45;&gt;hexastack_cli_infra -->
<g id="edge28" class="edge">
<title>hexastack_cli_infra_decorators&#45;&gt;hexastack_cli_infra</title><style>.edge>path:hover{stroke-width:8}</style>
<path fill="none" stroke="black" d="M605.32,-312.54C554.02,-298.99 480.58,-277.86 455.53,-262 434.54,-248.71 438.89,-233.68 417.53,-221 352.45,-182.36 275.24,-238.84 256.53,-165.5"/>
</g>
<!-- hexastack_cli_infra_decorators&#45;&gt;hexastack_cli_infra_autodiscovery -->
<g id="edge29" class="edge">
<title>hexastack_cli_infra_decorators&#45;&gt;hexastack_cli_infra_autodiscovery</title><style>.edge>path:hover{stroke-width:8}</style>
<path fill="none" stroke="black" d="M619.64,-304.49C598.92,-293.03 573.35,-278.89 551.86,-267.01"/>
<polygon fill="#8b2222" stroke="black" points="553.37,-263.85 542.92,-262.07 549.98,-269.97 553.37,-263.85"/>
</g>
<!-- hexastack_cli_infra_options&#45;&gt;hexastack_cli -->
<g id="edge30" class="edge">
<title>hexastack_cli_infra_options&#45;&gt;hexastack_cli</title><style>.edge>path:hover{stroke-width:8}</style>
<path fill="none" stroke="black" d="M120.4,-463.81C142.21,-423.51 191.56,-328.12 218.53,-242.5"/>
<path fill="none" stroke="black" d="M218.53,-240.5C228.38,-208.66 217.95,-198.83 218.53,-165.5"/>
</g>
<!-- hexastack_cli_infra_options&#45;&gt;hexastack_cli_infra -->
<g id="edge31" class="edge">
<title>hexastack_cli_infra_options&#45;&gt;hexastack_cli_infra</title><style>.edge>path:hover{stroke-width:8}</style>
<path fill="none" stroke="black" d="M218.53,-240.5C229.76,-204.86 265.77,-201.71 256.53,-165.5"/>
<path fill="none" stroke="black" d="M256.53,-163.5C252.38,-147.23 259.59,-130.09 268.31,-116.56"/>
<polygon fill="blue" stroke="black" points="271.28,-118.43 274.16,-108.23 265.55,-114.4 271.28,-118.43"/>
</g>
<!-- hexastack_cli_testing -->
<g id="node15" class="node">
<title>hexastack_cli_testing</title><style>.edge>path:hover{stroke-width:8}</style>
<polygon fill="blue" stroke="black" points="1071.53,-502.48 985.53,-502.48 985.53,-466.48 1071.53,-466.48 1071.53,-502.48"/>
<text text-anchor="middle" x="1028.53" y="-487.48" font-family="Helvetica,sans-Serif" font-size="10.00" fill="white">hexastack_cli.</text>
<text text-anchor="middle" x="1028.53" y="-476.48" font-family="Helvetica,sans-Serif" font-size="10.00" fill="white">testing</text>
</g>
<!-- hexastack_cli_testing_events -->
<g id="node16" class="node">
<title>hexastack_cli_testing_events</title><style>.edge>path:hover{stroke-width:8}</style>
<ellipse fill="#db2f2f" stroke="black" cx="981.53" cy="-723.97" rx="60.62" ry="28.98"/>
<text text-anchor="middle" x="981.53" y="-732.47" font-family="Helvetica,sans-Serif" font-size="10.00" fill="#ffffff">hexastack_cli.</text>
<text text-anchor="middle" x="981.53" y="-721.47" font-family="Helvetica,sans-Serif" font-size="10.00" fill="#ffffff">testing.</text>
<text text-anchor="middle" x="981.53" y="-710.47" font-family="Helvetica,sans-Serif" font-size="10.00" fill="#ffffff">events</text>
</g>
<!-- hexastack_cli_testing_events&#45;&gt;hexastack_cli_testing -->
<g id="edge32" class="edge">
<title>hexastack_cli_testing_events&#45;&gt;hexastack_cli_testing</title><style>.edge>path:hover{stroke-width:8}</style>
<path fill="none" stroke="black" d="M1025.91,-703.79C1044.5,-693.35 1064.37,-678.53 1075.53,-658.98 1101.56,-613.4 1099.82,-589.8 1080.53,-540.98 1075.86,-529.18 1067.38,-518.42 1058.59,-509.58"/>
<polygon fill="#db2f2f" stroke="black" points="1060.89,-506.94 1051.22,-502.63 1056.09,-512.04 1060.89,-506.94"/>
</g>
<!-- hexastack_cli_testing_narrator -->
<g id="node17" class="node">
<title>hexastack_cli_testing_narrator</title><style>.edge>path:hover{stroke-width:8}</style>
<polygon fill="blue" stroke="black" points="1071.53,-581.98 985.53,-581.98 985.53,-540.98 1071.53,-540.98 1071.53,-581.98"/>
<text text-anchor="middle" x="1028.53" y="-569.98" font-family="Helvetica,sans-Serif" font-size="10.00" fill="white">hexastack_cli.</text>
<text text-anchor="middle" x="1028.53" y="-558.98" font-family="Helvetica,sans-Serif" font-size="10.00" fill="white">testing.</text>
<text text-anchor="middle" x="1028.53" y="-547.98" font-family="Helvetica,sans-Serif" font-size="10.00" fill="white">narrator</text>
</g>
<!-- hexastack_cli_testing_events&#45;&gt;hexastack_cli_testing_narrator -->
<g id="edge33" class="edge">
<title>hexastack_cli_testing_events&#45;&gt;hexastack_cli_testing_narrator</title><style>.edge>path:hover{stroke-width:8}</style>
<path fill="none" stroke="black" d="M1020.23,-701.51C1040.73,-687.03 1061.68,-665.78 1061.53,-639.48"/>
<path fill="none" stroke="black" d="M1061.53,-637.48C1061.44,-621.19 1054.82,-604.46 1047.53,-590.94"/>
<polygon fill="#db2f2f" stroke="black" points="1050.49,-589.06 1042.45,-582.15 1044.42,-592.56 1050.49,-589.06"/>
</g>
<!-- hexastack_cli_testing_terminal -->
<g id="node18" class="node">
<title>hexastack_cli_testing_terminal</title><style>.edge>path:hover{stroke-width:8}</style>
<polygon fill="blue" stroke="black" points="1024.53,-658.98 938.53,-658.98 938.53,-617.98 1024.53,-617.98 1024.53,-658.98"/>
<text text-anchor="middle" x="981.53" y="-646.98" font-family="Helvetica,sans-Serif" font-size="10.00" fill="white">hexastack_cli.</text>
<text text-anchor="middle" x="981.53" y="-635.98" font-family="Helvetica,sans-Serif" font-size="10.00" fill="white">testing.</text>
<text text-anchor="middle" x="981.53" y="-624.98" font-family="Helvetica,sans-Serif" font-size="10.00" fill="white">terminal</text>
</g>
<!-- hexastack_cli_testing_events&#45;&gt;hexastack_cli_testing_terminal -->
<g id="edge34" class="edge">
<title>hexastack_cli_testing_events&#45;&gt;hexastack_cli_testing_terminal</title><style>.edge>path:hover{stroke-width:8}</style>
<path fill="none" stroke="black" d="M981.53,-694.71C981.53,-686.46 981.53,-677.42 981.53,-669.09"/>
<polygon fill="#db2f2f" stroke="black" points="985.03,-669.03 981.53,-659.03 978.03,-669.03 985.03,-669.03"/>
</g>
<!-- hexastack_cli_testing_narrator&#45;&gt;hexastack_cli_testing -->
<g id="edge35" class="edge">
<title>hexastack_cli_testing_narrator&#45;&gt;hexastack_cli_testing</title><style>.edge>path:hover{stroke-width:8}</style>
<path fill="none" stroke="black" d="M1028.53,-540.78C1028.53,-532.29 1028.53,-522.23 1028.53,-513.02"/>
<polygon fill="blue" stroke="black" points="1032.03,-512.76 1028.53,-502.76 1025.03,-512.76 1032.03,-512.76"/>
</g>
<!-- hexastack_cli_testing_terminal&#45;&gt;hexastack_cli_testing -->
<g id="edge36" class="edge">
<title>hexastack_cli_testing_terminal&#45;&gt;hexastack_cli_testing</title><style>.edge>path:hover{stroke-width:8}</style>
<path fill="none" stroke="black" d="M975.87,-617.86C971.14,-597.79 966.6,-566.1 976.53,-540.98 981.19,-529.18 989.68,-518.42 998.47,-509.58"/>
<polygon fill="blue" stroke="black" points="1000.97,-512.04 1005.84,-502.63 996.16,-506.94 1000.97,-512.04"/>
</g>
<!-- hexastack_cli_testing_terminal&#45;&gt;hexastack_cli_testing_narrator -->
<g id="edge37" class="edge">
<title>hexastack_cli_testing_terminal&#45;&gt;hexastack_cli_testing_narrator</title><style>.edge>path:hover{stroke-width:8}</style>
<path fill="none" stroke="black" d="M993.88,-617.78C999.06,-609.51 1005.18,-599.74 1010.83,-590.73"/>
<polygon fill="blue" stroke="black" points="1013.92,-592.39 1016.26,-582.06 1007.99,-588.67 1013.92,-592.39"/>
</g>
<!-- hexastack_core -->
<g id="node19" class="node">
<title>hexastack_core</title><style>.edge>path:hover{stroke-width:8}</style>
<polygon fill="blue" stroke="black" points="749.03,-1027.95 746.03,-1031.95 725.03,-1031.95 722.03,-1027.95 656.03,-1027.95 656.03,-991.95 749.03,-991.95 749.03,-1027.95"/>
<text text-anchor="middle" x="702.53" y="-1007.45" font-family="Helvetica,sans-Serif" font-size="10.00" fill="white">hexastack_core</text>
</g>
<!-- hexastack_core&#45;&gt;hexastack_cli_adapters_presenter -->
<g id="edge38" class="edge">
<title>hexastack_core&#45;&gt;hexastack_cli_adapters_presenter</title><style>.edge>path:hover{stroke-width:8}</style>
<path fill="none" stroke="black" d="M371.53,-816.96C309.41,-766.89 403.56,-719.11 398.53,-639.48"/>
<path fill="none" stroke="black" d="M398.53,-637.48C397.29,-617.85 384.08,-601.28 369.38,-588.74"/>
<polygon fill="blue" stroke="black" points="371.14,-585.67 361.13,-582.2 366.79,-591.15 371.14,-585.67"/>
</g>
<!-- hexastack_core&#45;&gt;hexastack_cli_adapters_routing -->
<g id="edge39" class="edge">
<title>hexastack_core&#45;&gt;hexastack_cli_adapters_routing</title><style>.edge>path:hover{stroke-width:8}</style>
<path fill="none" stroke="black" d="M854.53,-899.95C823.4,-881.87 870.67,-851.13 854.53,-818.96"/>
<path fill="none" stroke="black" d="M854.53,-816.96C800.39,-709.04 700.56,-802.66 590.53,-752.97 570.75,-744.03 566.75,-739.38 550.53,-724.97"/>
<path fill="none" stroke="black" d="M550.53,-722.97C495.72,-674.3 537.68,-631.34 512.53,-562.48"/>
<path fill="none" stroke="black" d="M512.53,-560.48C504.66,-545.33 496.05,-528.36 489.01,-514.4"/>
<polygon fill="blue" stroke="black" points="492.04,-512.64 484.42,-505.28 485.79,-515.78 492.04,-512.64"/>
</g>
<!-- hexastack_core&#45;&gt;hexastack_cli_infra_app -->
<g id="edge40" class="edge">
<title>hexastack_core&#45;&gt;hexastack_cli_infra_app</title><style>.edge>path:hover{stroke-width:8}</style>
<path fill="none" stroke="black" d="M398.53,-637.48C393.62,-559.79 392.27,-535.71 422.53,-463.98 430.41,-445.31 443.95,-447.16 450.53,-427.98 455.72,-412.85 454.62,-407.45 450.53,-391.98 438.36,-345.95 408.36,-299.25 387.47,-270.58"/>
<polygon fill="blue" stroke="black" points="390.08,-268.23 381.31,-262.29 384.46,-272.4 390.08,-268.23"/>
</g>
<!-- hexastack_core&#45;&gt;hexastack_cli_infra_autodiscovery -->
<g id="edge41" class="edge">
<title>hexastack_core&#45;&gt;hexastack_cli_infra_autodiscovery</title><style>.edge>path:hover{stroke-width:8}</style>
<path fill="none" stroke="black" d="M854.53,-816.96C836.2,-780.42 858.99,-765.61 854.53,-724.97"/>
<path fill="none" stroke="black" d="M854.53,-722.97C847.93,-662.9 794.96,-519.69 771.53,-463.98 761.2,-439.43 744.81,-437.59 743.53,-410.98"/>
</g>
<!-- hexastack_core&#45;&gt;hexastack_cli_infra_bootstrap -->
<g id="edge42" class="edge">
<title>hexastack_core&#45;&gt;hexastack_cli_infra_bootstrap</title><style>.edge>path:hover{stroke-width:8}</style>
<path fill="none" stroke="black" d="M854.53,-722.97C852.26,-685.94 845.83,-675.56 854.53,-639.48"/>
</g>
<!-- hexastack_core&#45;&gt;hexastack_cli_infra_config -->
<g id="edge43" class="edge">
<title>hexastack_core&#45;&gt;hexastack_cli_infra_config</title><style>.edge>path:hover{stroke-width:8}</style>
<path fill="none" stroke="black" d="M749.21,-1003.79C805.53,-996.52 895.33,-981.25 916.53,-955.95"/>
<path fill="none" stroke="black" d="M916.53,-954.95C932.53,-935.84 892.37,-935.26 873.53,-918.95 864.96,-911.53 864.33,-907.64 854.53,-901.95"/>
<path fill="none" stroke="black" d="M854.53,-899.95C666.29,-790.65 541,-955.55 371.53,-818.96"/>
<path fill="none" stroke="black" d="M371.53,-816.96C330.24,-783.68 305.65,-777.03 295.53,-724.97"/>
</g>
<!-- hexastack_core&#45;&gt;hexastack_cli_infra_decorators -->
<g id="edge44" class="edge">
<title>hexastack_core&#45;&gt;hexastack_cli_infra_decorators</title><style>.edge>path:hover{stroke-width:8}</style>
<path fill="none" stroke="black" d="M550.53,-722.97C518.88,-687.06 560.15,-663.64 574.53,-617.98 604.35,-523.28 646.48,-509.53 658.53,-410.98"/>
<path fill="none" stroke="black" d="M658.53,-408.98C659.22,-395.13 659.38,-379.93 659.32,-366.48"/>
<polygon fill="blue" stroke="black" points="662.81,-366.09 659.22,-356.12 655.81,-366.15 662.81,-366.09"/>
</g>
<!-- hexastack_core&#45;&gt;hexastack_cli_testing_narrator -->
<g id="edge45" class="edge">
<title>hexastack_core&#45;&gt;hexastack_cli_testing_narrator</title><style>.edge>path:hover{stroke-width:8}</style>
<path fill="none" stroke="black" d="M1070.53,-816.96C1071.84,-737.99 1061.98,-718.46 1061.53,-639.48"/>
</g>
<!-- hexastack_core&#45;&gt;hexastack_cli_testing_terminal -->
<g id="edge46" class="edge">
<title>hexastack_core&#45;&gt;hexastack_cli_testing_terminal</title><style>.edge>path:hover{stroke-width:8}</style>
<path fill="none" stroke="black" d="M916.53,-954.95C944.55,-918.9 1068.73,-864.58 1070.53,-818.96"/>
<path fill="none" stroke="black" d="M1070.53,-816.96C1072.01,-727.92 891.28,-814.02 892.53,-724.97"/>
</g>
<!-- hexastack_cqrs -->
<g id="node20" class="node">
<title>hexastack_cqrs</title><style>.edge>path:hover{stroke-width:8}</style>
<polygon fill="blue" stroke="black" points="826.53,-741.97 823.53,-745.97 802.53,-745.97 799.53,-741.97 734.53,-741.97 734.53,-705.97 826.53,-705.97 826.53,-741.97"/>
<text text-anchor="middle" x="780.53" y="-721.47" font-family="Helvetica,sans-Serif" font-size="10.00" fill="white">hexastack_cqrs</text>
</g>
<!-- hexastack_core&#45;&gt;hexastack_cqrs -->
<g id="edge47" class="edge">
<title>hexastack_core&#45;&gt;hexastack_cqrs</title><style>.edge>path:hover{stroke-width:8}</style>
<path fill="none" stroke="black" d="M854.53,-816.96C841.86,-791.7 821.37,-766.96 805.16,-749.52"/>
<polygon fill="blue" stroke="black" points="807.48,-746.88 798.06,-742.04 802.41,-751.7 807.48,-746.88"/>
</g>
<!-- hexastack_cqrs&#45;&gt;hexastack_cli_adapters_routing -->
<g id="edge48" class="edge">
<title>hexastack_cqrs&#45;&gt;hexastack_cli_adapters_routing</title><style>.edge>path:hover{stroke-width:8}</style>
<path fill="none" stroke="black" d="M758.52,-705.89C705.54,-664.77 570.63,-560.07 507.74,-511.26"/>
<polygon fill="blue" stroke="black" points="509.76,-508.4 499.72,-505.03 505.47,-513.93 509.76,-508.4"/>
</g>
<!-- hexastack_cqrs&#45;&gt;hexastack_cli_infra_app -->
<g id="edge49" class="edge">
<title>hexastack_cqrs&#45;&gt;hexastack_cli_infra_app</title><style>.edge>path:hover{stroke-width:8}</style>
<path fill="none" stroke="black" d="M781.2,-705.94C781.61,-689.01 781.58,-662.33 778.53,-639.48"/>
<path fill="none" stroke="black" d="M778.53,-637.48C772.64,-593.37 706.29,-498.76 678.53,-463.98 623.01,-394.42 606.79,-375.51 531.53,-327.99"/>
</g>
<!-- hexastack_cqrs&#45;&gt;hexastack_cli_infra_autodiscovery -->
<g id="edge50" class="edge">
<title>hexastack_cqrs&#45;&gt;hexastack_cli_infra_autodiscovery</title><style>.edge>path:hover{stroke-width:8}</style>
<path fill="none" stroke="black" d="M778.53,-637.48C774.12,-604.44 778.53,-595.82 778.53,-562.48"/>
</g>
<!-- hexastack_cqrs&#45;&gt;hexastack_cli_infra_bootstrap -->
<g id="edge51" class="edge">
<title>hexastack_cqrs&#45;&gt;hexastack_cli_infra_bootstrap</title><style>.edge>path:hover{stroke-width:8}</style>
<path fill="none" stroke="black" d="M805.82,-705.92C824.89,-691.07 848.71,-667.55 854.53,-639.48"/>
<path fill="none" stroke="black" d="M854.53,-637.48C874.94,-538.91 838.25,-510.33 854.53,-410.98"/>
</g>
<!-- playwright -->
<g id="node21" class="node">
<title>playwright</title><style>.edge>path:hover{stroke-width:8}</style>
<polygon fill="#47c266" stroke="black" points="950.53,-918.95 947.53,-922.95 926.53,-922.95 923.53,-918.95 882.53,-918.95 882.53,-882.95 950.53,-882.95 950.53,-918.95"/>
<text text-anchor="middle" x="916.53" y="-898.45" font-family="Helvetica,sans-Serif" font-size="10.00" fill="#000000">playwright</text>
</g>
<!-- playwright&#45;&gt;hexastack_cli_testing_terminal -->
<g id="edge52" class="edge">
<title>playwright&#45;&gt;hexastack_cli_testing_terminal</title><style>.edge>path:hover{stroke-width:8}</style>
<path fill="none" stroke="black" d="M912.29,-882.67C905.04,-851.39 891.15,-783.22 892.53,-724.97"/>
<path fill="none" stroke="black" d="M892.53,-722.97C892.88,-698.23 911.44,-678.68 931.52,-664.74"/>
<polygon fill="#47c266" stroke="black" points="933.7,-667.5 940.17,-659.11 929.88,-661.63 933.7,-667.5"/>
</g>
<!-- pydantic -->
<g id="node22" class="node">
<title>pydantic</title><style>.edge>path:hover{stroke-width:8}</style>
<polygon fill="#0cf3f3" stroke="black" points="406.03,-1245.95 403.03,-1249.95 382.03,-1249.95 379.03,-1245.95 347.03,-1245.95 347.03,-1209.95 406.03,-1209.95 406.03,-1245.95"/>
<text text-anchor="middle" x="376.53" y="-1225.45" font-family="Helvetica,sans-Serif" font-size="10.00" fill="#000000">pydantic</text>
</g>
<!-- pydantic&#45;&gt;hexastack_cli_adapters_presenter -->
<g id="edge53" class="edge">
<title>pydantic&#45;&gt;hexastack_cli_adapters_presenter</title><style>.edge>path:hover{stroke-width:8}</style>
<path fill="none" stroke="black" d="M321.53,-1100.95C316.16,-1089.31 313.45,-650.77 319.53,-639.48"/>
</g>
<!-- pydantic&#45;&gt;hexastack_cli_domain_config -->
<g id="edge54" class="edge">
<title>pydantic&#45;&gt;hexastack_cli_domain_config</title><style>.edge>path:hover{stroke-width:8}</style>
<path fill="none" stroke="black" d="M362.6,-1209.69C355.15,-1199.74 346.34,-1186.7 340.53,-1173.95 326.81,-1143.83 334.4,-1132.44 321.53,-1101.95"/>
<path fill="none" stroke="black" d="M321.53,-1100.95C307.44,-1076.63 287.46,-1086.6 269.53,-1064.95 252.78,-1044.72 245.53,-1037.21 245.53,-1010.95 245.53,-1010.95 245.53,-1010.95 245.53,-954.95 245.53,-922.02 245.23,-884.6 244.96,-857.36"/>
<polygon fill="#0cf3f3" stroke="black" points="248.46,-857.05 244.86,-847.09 241.46,-857.12 248.46,-857.05"/>
</g>
<!-- pydantic&#45;&gt;hexastack_core -->
<g id="edge55" class="edge">
<title>pydantic&#45;&gt;hexastack_core</title><style>.edge>path:hover{stroke-width:8}</style>
<path fill="none" stroke="black" d="M391.47,-1209.49C399.04,-1199.68 407.64,-1186.85 412.53,-1173.95 429.84,-1128.27 386.35,-1092.72 426.53,-1064.95"/>
</g>
<!-- rich -->
<g id="node23" class="node">
<title>rich</title><style>.edge>path:hover{stroke-width:8}</style>
<polygon fill="blue" stroke="black" points="596.53,-835.96 593.53,-839.96 572.53,-839.96 569.53,-835.96 542.53,-835.96 542.53,-799.96 596.53,-799.96 596.53,-835.96"/>
<text text-anchor="middle" x="569.53" y="-815.46" font-family="Helvetica,sans-Serif" font-size="10.00" fill="white">rich</text>
</g>
<!-- rich&#45;&gt;hexastack_cli_adapters_presenter -->
<g id="edge56" class="edge">
<title>rich&#45;&gt;hexastack_cli_adapters_presenter</title><style>.edge>path:hover{stroke-width:8}</style>
<path fill="none" stroke="black" d="M548.31,-799.86C514.79,-771.09 451.84,-709.25 436.53,-639.48"/>
<path fill="none" stroke="black" d="M436.53,-637.48C424.94,-613.71 401.72,-596.15 379.69,-584.02"/>
<polygon fill="blue" stroke="black" points="381.16,-580.85 370.68,-579.32 377.92,-587.05 381.16,-580.85"/>
</g>
<!-- rich&#45;&gt;hexastack_cli_adapters_routing -->
<g id="edge57" class="edge">
<title>rich&#45;&gt;hexastack_cli_adapters_routing</title><style>.edge>path:hover{stroke-width:8}</style>
<path fill="none" stroke="black" d="M474.53,-560.48C472.28,-545.76 472.04,-529.21 472.46,-515.42"/>
<polygon fill="blue" stroke="black" points="475.97,-515.17 472.92,-505.03 468.98,-514.87 475.97,-515.17"/>
</g>
<!-- rich&#45;&gt;hexastack_cli_infra_app -->
<g id="edge58" class="edge">
<title>rich&#45;&gt;hexastack_cli_infra_app</title><style>.edge>path:hover{stroke-width:8}</style>
<path fill="none" stroke="black" d="M436.53,-637.48C420.15,-603.89 480.18,-599.42 474.53,-562.48"/>
<path fill="none" stroke="black" d="M474.53,-560.48C463.43,-487.98 354.81,-553.57 327.53,-485.48"/>
</g>
<!-- rich&#45;&gt;hexastack_cli_infra_autodiscovery -->
<g id="edge59" class="edge">
<title>rich&#45;&gt;hexastack_cli_infra_autodiscovery</title><style>.edge>path:hover{stroke-width:8}</style>
<path fill="none" stroke="black" d="M596.64,-802.46C616.51,-790.91 643.27,-773.33 662.53,-752.97 696.58,-716.96 778.53,-612.04 778.53,-562.48"/>
<path fill="none" stroke="black" d="M778.53,-560.48C769.48,-492.84 744.21,-479.22 743.53,-410.98"/>
</g>
<!-- rodi -->
<g id="node24" class="node">
<title>rodi</title><style>.edge>path:hover{stroke-width:8}</style>
<polygon fill="#8547c2" stroke="black" points="403.53,-1173.95 400.53,-1177.95 379.53,-1177.95 376.53,-1173.95 349.53,-1173.95 349.53,-1137.95 403.53,-1137.95 403.53,-1173.95"/>
<text text-anchor="middle" x="376.53" y="-1153.45" font-family="Helvetica,sans-Serif" font-size="10.00" fill="#ffffff">rodi</text>
</g>
<!-- rodi&#45;&gt;hexastack_cli_infra_app -->
<g id="edge60" class="edge">
<title>rodi&#45;&gt;hexastack_cli_infra_app</title><style>.edge>path:hover{stroke-width:8}</style>
<path fill="none" stroke="black" d="M380.77,-1137.48C382.59,-1127.01 383.67,-1113.53 380.53,-1101.95"/>
<path fill="none" stroke="black" d="M380.53,-1100.95C342.45,-960.68 223.1,-983.94 174.53,-846.95 143.03,-758.11 218.53,-733.74 218.53,-639.48 218.53,-639.48 218.53,-639.48 218.53,-560.48 218.53,-478.25 301.99,-489.15 327.53,-410.98"/>
<path fill="none" stroke="black" d="M327.53,-408.98C337.41,-359.49 340.02,-347.14 351.53,-298 353.51,-289.54 355.77,-280.38 357.89,-271.99"/>
<polygon fill="#8547c2" stroke="black" points="361.3,-272.79 360.38,-262.24 354.51,-271.06 361.3,-272.79"/>
</g>
<!-- rodi&#45;&gt;hexastack_core -->
<g id="edge61" class="edge">
<title>rodi&#45;&gt;hexastack_core</title><style>.edge>path:hover{stroke-width:8}</style>
<path fill="none" stroke="black" d="M380.53,-1100.95C373.73,-1075.89 405.17,-1079.71 426.53,-1064.95"/>
<path fill="none" stroke="black" d="M426.53,-1063.95C461.34,-1039.89 575.7,-1024.1 645.82,-1016.42"/>
<polygon fill="#8547c2" stroke="black" points="646.26,-1019.89 655.83,-1015.35 645.52,-1012.93 646.26,-1019.89"/>
</g>
<!-- typer -->
<g id="node25" class="node">
<title>typer</title><style>.edge>path:hover{stroke-width:8}</style>
<polygon fill="#f906bc" stroke="black" points="653.53,-741.97 650.53,-745.97 629.53,-745.97 626.53,-741.97 599.53,-741.97 599.53,-705.97 653.53,-705.97 653.53,-741.97"/>
<text text-anchor="middle" x="626.53" y="-721.47" font-family="Helvetica,sans-Serif" font-size="10.00" fill="#ffffff">typer</text>
</g>
<!-- typer&#45;&gt;hexastack_cli_adapters_routing -->
<g id="edge62" class="edge">
<title>typer&#45;&gt;hexastack_cli_adapters_routing</title><style>.edge>path:hover{stroke-width:8}</style>
<path fill="none" stroke="black" d="M617.51,-705.78C609.09,-689.18 596.63,-663.14 588.53,-639.48"/>
<path fill="none" stroke="black" d="M588.53,-637.48C573.15,-592.59 528.81,-607.06 512.53,-562.48"/>
</g>
<!-- typer&#45;&gt;hexastack_cli_infra_app -->
<g id="edge63" class="edge">
<title>typer&#45;&gt;hexastack_cli_infra_app</title><style>.edge>path:hover{stroke-width:8}</style>
<path fill="none" stroke="black" d="M588.53,-637.48C543.19,-505.17 644.38,-410.62 531.53,-327.99"/>
<path fill="none" stroke="black" d="M531.53,-325.99C495,-302.93 451.27,-281.15 417.86,-265.62"/>
<polygon fill="#f906bc" stroke="black" points="419.27,-262.42 408.73,-261.41 416.34,-268.77 419.27,-262.42"/>
</g>
<!-- typer&#45;&gt;hexastack_cli_infra_autodiscovery -->
<g id="edge64" class="edge">
<title>typer&#45;&gt;hexastack_cli_infra_autodiscovery</title><style>.edge>path:hover{stroke-width:8}</style>
<path fill="none" stroke="black" d="M664.53,-483.48C664.46,-435.83 741.42,-458.59 743.53,-410.98"/>
<path fill="none" stroke="black" d="M743.53,-408.98C745.73,-359.26 761.7,-335.11 728.53,-298 706.51,-273.38 619.2,-257.26 561.13,-249.03"/>
<polygon fill="#f906bc" stroke="black" points="561.39,-245.54 551.01,-247.64 560.44,-252.47 561.39,-245.54"/>
</g>
<!-- typer&#45;&gt;hexastack_cli_infra_bootstrap -->
<g id="edge65" class="edge">
<title>typer&#45;&gt;hexastack_cli_infra_bootstrap</title><style>.edge>path:hover{stroke-width:8}</style>
<path fill="none" stroke="black" d="M702.53,-560.48C732.64,-470.64 832.39,-503.12 854.53,-410.98"/>
<path fill="none" stroke="black" d="M854.53,-408.98C900.77,-204.47 523.8,-171.55 380.95,-166.4"/>
<polygon fill="#f906bc" stroke="black" points="380.78,-162.89 370.67,-166.06 380.55,-169.89 380.78,-162.89"/>
</g>
<!-- typer&#45;&gt;hexastack_cli_infra_decorators -->
<g id="edge66" class="edge">
<title>typer&#45;&gt;hexastack_cli_infra_decorators</title><style>.edge>path:hover{stroke-width:8}</style>
<path fill="none" stroke="black" d="M636.06,-705.62C651.65,-676.66 682.86,-616.35 702.53,-562.48"/>
<path fill="none" stroke="black" d="M702.53,-560.48C714.4,-525.05 664.58,-522.85 664.53,-485.48"/>
<path fill="none" stroke="black" d="M664.53,-483.48C664.48,-451.15 654.6,-443.08 658.53,-410.98"/>
</g>
<!-- typer&#45;&gt;hexastack_cli_infra_options -->
<g id="edge67" class="edge">
<title>typer&#45;&gt;hexastack_cli_infra_options</title><style>.edge>path:hover{stroke-width:8}</style>
<path fill="none" stroke="black" d="M609.07,-705.79C570.94,-669.29 475.88,-583.88 379.53,-540.98 308.53,-509.37 218.96,-495.53 162.95,-489.64"/>
<polygon fill="#f906bc" stroke="black" points="163.2,-486.15 152.9,-488.63 162.5,-493.11 163.2,-486.15"/>
</g>
<!-- typer&#45;&gt;hexastack_cli_testing_narrator -->
<g id="edge68" class="edge">
<title>typer&#45;&gt;hexastack_cli_testing_narrator</title><style>.edge>path:hover{stroke-width:8}</style>
<path fill="none" stroke="black" d="M643.58,-705.88C668.11,-682.32 715.79,-640.26 764.53,-617.98 833.16,-586.61 919.97,-572.74 974.9,-566.77"/>
<polygon fill="#f906bc" stroke="black" points="975.52,-570.23 985.1,-565.72 974.8,-563.27 975.52,-570.23"/>
</g>
</g>
</svg>
