<?xml version="1.0" encoding="UTF-8" standalone="no"?>
<!DOCTYPE svg PUBLIC "-//W3C//DTD SVG 1.1//EN"
 "http://www.w3.org/Graphics/SVG/1.1/DTD/svg11.dtd">
<!-- Generated by graphviz version 2.43.0 (0)
 -->
<!-- Title: G Pages: 1 -->
<svg width="1821pt" height="705pt"
 viewBox="0.00 0.00 1821.36 704.87" xmlns="http://www.w3.org/2000/svg" xmlns:xlink="http://www.w3.org/1999/xlink">
<g id="graph0" class="graph" transform="scale(1 1) rotate(0) translate(4 700.87)">
<title>G</title><style>.edge>path:hover{stroke-width:8}</style>
<polygon fill="white" stroke="transparent" points="-4,4 -4,-700.87 1817.36,-700.87 1817.36,4 -4,4"/>
<g id="clust1" class="cluster">
<title>cluster_hexastack_db</title><style>.edge>path:hover{stroke-width:8}</style>
<polygon fill="none" stroke="black" points="769.8,-244 769.8,-567 1805.36,-567 1805.36,-244 769.8,-244"/>
<text text-anchor="middle" x="1287.58" y="-551.8" font-family="Times,serif" font-size="14.00">hexastack_db</text>
</g>
<g id="clust2" class="cluster">
<title>cluster_pydantic_core</title><style>.edge>path:hover{stroke-width:8}</style>
<polygon fill="none" stroke="black" points="189.8,-198 189.8,-273 414.8,-273 414.8,-198 189.8,-198"/>
<text text-anchor="middle" x="302.3" y="-257.8" font-family="Times,serif" font-size="14.00">pydantic_core</text>
</g>
<!-- hexastack_db -->
<g id="node1" class="node">
<title>hexastack_db</title><style>.edge>path:hover{stroke-width:8}</style>
<polygon fill="blue" stroke="black" points="1699.36,-365 1615.36,-365 1615.36,-329 1699.36,-329 1699.36,-365"/>
<text text-anchor="middle" x="1657.36" y="-344.5" font-family="Helvetica,sans-Serif" font-size="10.00" fill="white">hexastack_db</text>
</g>
<!-- hexastack_db_adapters -->
<g id="node2" class="node">
<title>hexastack_db_adapters</title><style>.edge>path:hover{stroke-width:8}</style>
<polygon fill="blue" stroke="black" points="1229.09,-354 1170.09,-354 1170.09,-318 1229.09,-318 1229.09,-354"/>
<text text-anchor="middle" x="1199.59" y="-333.5" font-family="Helvetica,sans-Serif" font-size="10.00" fill="white">adapters</text>
</g>
<!-- hexastack_db_adapters&#45;&gt;hexastack_db -->
<g id="edge9" class="edge">
<title>hexastack_db_adapters&#45;&gt;hexastack_db</title><style>.edge>path:hover{stroke-width:8}</style>
<path fill="none" stroke="black" d="M1219.64,-317.9C1234.19,-305.4 1255.42,-289.84 1277.38,-283 1314.59,-271.41 1328.85,-268.6 1365.06,-283 1385.51,-291.13 1381.12,-307.69 1401.06,-317 1419.07,-325.41 1535.59,-336.64 1604.84,-342.69"/>
<polygon fill="#000000" stroke="black" points="1604.84,-346.21 1615.11,-343.58 1605.45,-339.23 1604.84,-346.21"/>
</g>
<!-- hexastack_db_infra_bootstrap -->
<g id="node9" class="node">
<title>hexastack_db_infra_bootstrap</title><style>.edge>path:hover{stroke-width:8}</style>
<polygon fill="blue" stroke="black" points="1476.71,-402 1413.71,-402 1413.71,-366 1476.71,-366 1476.71,-402"/>
<text text-anchor="middle" x="1445.21" y="-387" font-family="Helvetica,sans-Serif" font-size="10.00" fill="white">infra.</text>
<text text-anchor="middle" x="1445.21" y="-376" font-family="Helvetica,sans-Serif" font-size="10.00" fill="white">bootstrap</text>
</g>
<!-- hexastack_db_adapters&#45;&gt;hexastack_db_infra_bootstrap -->
<g id="edge10" class="edge">
<title>hexastack_db_adapters&#45;&gt;hexastack_db_infra_bootstrap</title><style>.edge>path:hover{stroke-width:8}</style>
<path fill="none" stroke="black" d="M1229.12,-341.49C1261.94,-347.81 1317.41,-358.55 1365.06,-368 1377.53,-370.47 1391.08,-373.2 1403.4,-375.69"/>
<polygon fill="#000000" stroke="black" points="1402.9,-379.16 1413.4,-377.72 1404.3,-372.3 1402.9,-379.16"/>
</g>
<!-- hexastack_db_adapters_repository -->
<g id="node3" class="node">
<title>hexastack_db_adapters_repository</title><style>.edge>path:hover{stroke-width:8}</style>
<polygon fill="blue" stroke="black" points="1114.79,-356 1048.79,-356 1048.79,-320 1114.79,-320 1114.79,-356"/>
<text text-anchor="middle" x="1081.79" y="-341" font-family="Helvetica,sans-Serif" font-size="10.00" fill="white">adapters.</text>
<text text-anchor="middle" x="1081.79" y="-330" font-family="Helvetica,sans-Serif" font-size="10.00" fill="white">repository</text>
</g>
<!-- hexastack_db_adapters_repository&#45;&gt;hexastack_db_adapters -->
<g id="edge11" class="edge">
<title>hexastack_db_adapters_repository&#45;&gt;hexastack_db_adapters</title><style>.edge>path:hover{stroke-width:8}</style>
<path fill="none" stroke="black" d="M1115.05,-337.44C1128.94,-337.2 1145.3,-336.92 1159.85,-336.67"/>
<polygon fill="#000000" stroke="black" points="1160.12,-340.17 1170.05,-336.49 1159.99,-333.17 1160.12,-340.17"/>
</g>
<!-- hexastack_db_adapters_unit_of_work -->
<g id="node4" class="node">
<title>hexastack_db_adapters_unit_of_work</title><style>.edge>path:hover{stroke-width:8}</style>
<polygon fill="blue" stroke="black" points="1121.79,-410 1041.79,-410 1041.79,-374 1121.79,-374 1121.79,-410"/>
<text text-anchor="middle" x="1081.79" y="-395" font-family="Helvetica,sans-Serif" font-size="10.00" fill="white">adapters.</text>
<text text-anchor="middle" x="1081.79" y="-384" font-family="Helvetica,sans-Serif" font-size="10.00" fill="white">unit_of_work</text>
</g>
<!-- hexastack_db_adapters_unit_of_work&#45;&gt;hexastack_db_adapters -->
<g id="edge12" class="edge">
<title>hexastack_db_adapters_unit_of_work&#45;&gt;hexastack_db_adapters</title><style>.edge>path:hover{stroke-width:8}</style>
<path fill="none" stroke="black" d="M1120.07,-373.97C1133.05,-367.7 1147.62,-360.65 1160.65,-354.34"/>
<polygon fill="#000000" stroke="black" points="1162.35,-357.41 1169.83,-349.91 1159.3,-351.11 1162.35,-357.41"/>
</g>
<!-- hexastack_db_adapters_unit_of_work&#45;&gt;hexastack_db_infra_bootstrap -->
<g id="edge13" class="edge">
<title>hexastack_db_adapters_unit_of_work&#45;&gt;hexastack_db_infra_bootstrap</title><style>.edge>path:hover{stroke-width:8}</style>
<path fill="none" stroke="black" d="M1121.89,-388.62C1161.15,-385.4 1223.41,-380.8 1277.38,-379 1316.33,-377.7 1326.11,-377.77 1365.06,-379 1377.53,-379.39 1391.1,-380.14 1403.41,-380.93"/>
<polygon fill="#000000" stroke="black" points="1403.2,-384.42 1413.41,-381.6 1403.67,-377.44 1403.2,-384.42"/>
</g>
<!-- hexastack_db_adapters_vector -->
<g id="node5" class="node">
<title>hexastack_db_adapters_vector</title><style>.edge>path:hover{stroke-width:8}</style>
<polygon fill="blue" stroke="black" points="1797.36,-325 1735.36,-325 1735.36,-289 1797.36,-289 1797.36,-325"/>
<text text-anchor="middle" x="1766.36" y="-310" font-family="Helvetica,sans-Serif" font-size="10.00" fill="white">adapters.</text>
<text text-anchor="middle" x="1766.36" y="-299" font-family="Helvetica,sans-Serif" font-size="10.00" fill="white">vector</text>
</g>
<!-- hexastack_db_adapters_vector&#45;&gt;hexastack_db_adapters -->
<g id="edge14" class="edge">
<title>hexastack_db_adapters_vector&#45;&gt;hexastack_db_adapters</title><style>.edge>path:hover{stroke-width:8}</style>
<path fill="none" stroke="black" d="M1735.08,-294.2C1694.49,-278.23 1619.83,-253 1553.36,-253 1444.21,-253 1444.21,-253 1444.21,-253 1369.73,-253 1345.8,-239.55 1277.38,-269 1256.07,-278.17 1236.44,-295.53 1222.36,-310.28"/>
<polygon fill="#000000" stroke="black" points="1219.73,-307.97 1215.53,-317.7 1224.88,-312.72 1219.73,-307.97"/>
</g>
<!-- hexastack_db_adapters_vector&#45;&gt;hexastack_db_infra_bootstrap -->
<g id="edge15" class="edge">
<title>hexastack_db_adapters_vector&#45;&gt;hexastack_db_infra_bootstrap</title><style>.edge>path:hover{stroke-width:8}</style>
<path fill="none" stroke="black" d="M1735.1,-307.19C1704.54,-307.95 1656.14,-310.71 1615.36,-320 1569.81,-330.38 1520.06,-350.32 1486.38,-365.2"/>
<polygon fill="#000000" stroke="black" points="1484.6,-362.16 1476.9,-369.44 1487.46,-368.55 1484.6,-362.16"/>
</g>
<!-- hexastack_db_domain -->
<g id="node6" class="node">
<title>hexastack_db_domain</title><style>.edge>path:hover{stroke-width:8}</style>
<polygon fill="blue" stroke="black" points="967.79,-513 913.79,-513 913.79,-477 967.79,-477 967.79,-513"/>
<text text-anchor="middle" x="940.79" y="-492.5" font-family="Helvetica,sans-Serif" font-size="10.00" fill="white">domain</text>
</g>
<!-- hexastack_db_domain&#45;&gt;hexastack_db -->
<g id="edge16" class="edge">
<title>hexastack_db_domain&#45;&gt;hexastack_db</title><style>.edge>path:hover{stroke-width:8}</style>
<path fill="none" stroke="black" d="M968.02,-501.05C995.84,-506.94 1041.17,-515 1080.79,-515 1080.79,-515 1080.79,-515 1446.21,-515 1535.51,-515 1608.64,-421.31 1639.94,-373.86"/>
<polygon fill="#000000" stroke="black" points="1642.98,-375.6 1645.47,-365.3 1637.1,-371.8 1642.98,-375.6"/>
</g>
<!-- hexastack_db_domain&#45;&gt;hexastack_db_adapters_repository -->
<g id="edge17" class="edge">
<title>hexastack_db_domain&#45;&gt;hexastack_db_adapters_repository</title><style>.edge>path:hover{stroke-width:8}</style>
<path fill="none" stroke="black" d="M967.41,-476.98C980.12,-467.12 995,-454.07 1005.79,-440 1028.29,-410.66 1017.79,-393.13 1041.79,-365 1042.29,-364.41 1042.81,-363.83 1043.34,-363.26"/>
<polygon fill="#000000" stroke="black" points="1045.95,-365.61 1050.87,-356.23 1041.17,-360.5 1045.95,-365.61"/>
</g>
<!-- hexastack_db_domain&#45;&gt;hexastack_db_adapters_unit_of_work -->
<g id="edge18" class="edge">
<title>hexastack_db_domain&#45;&gt;hexastack_db_adapters_unit_of_work</title><style>.edge>path:hover{stroke-width:8}</style>
<path fill="none" stroke="black" d="M967.82,-492.68C980.04,-490.68 994.39,-486.95 1005.79,-480 1030.61,-464.86 1051.35,-438.69 1064.68,-418.81"/>
<polygon fill="#000000" stroke="black" points="1067.78,-420.48 1070.28,-410.18 1061.9,-416.67 1067.78,-420.48"/>
</g>
<!-- hexastack_db_domain_exceptions -->
<g id="node7" class="node">
<title>hexastack_db_domain_exceptions</title><style>.edge>path:hover{stroke-width:8}</style>
<ellipse fill="#75c823" stroke="black" cx="827.29" cy="-495" rx="49.49" ry="21.43"/>
<text text-anchor="middle" x="827.29" y="-498" font-family="Helvetica,sans-Serif" font-size="10.00" fill="#000000">domain.</text>
<text text-anchor="middle" x="827.29" y="-487" font-family="Helvetica,sans-Serif" font-size="10.00" fill="#000000">exceptions</text>
</g>
<!-- hexastack_db_domain_exceptions&#45;&gt;hexastack_db_adapters_repository -->
<g id="edge19" class="edge">
<title>hexastack_db_domain_exceptions&#45;&gt;hexastack_db_adapters_repository</title><style>.edge>path:hover{stroke-width:8}</style>
<path fill="none" stroke="black" d="M856.54,-477.81C872.64,-468.47 893.41,-457.2 912.79,-449 952.66,-432.12 971.24,-446.09 1005.79,-420 1029.11,-402.39 1021.4,-385.92 1041.79,-365 1042.45,-364.33 1043.12,-363.66 1043.81,-363.01"/>
<polygon fill="#000000" stroke="black" points="1046.35,-365.44 1051.66,-356.27 1041.79,-360.12 1046.35,-365.44"/>
</g>
<!-- hexastack_db_domain_exceptions&#45;&gt;hexastack_db_adapters_unit_of_work -->
<g id="edge20" class="edge">
<title>hexastack_db_domain_exceptions&#45;&gt;hexastack_db_adapters_unit_of_work</title><style>.edge>path:hover{stroke-width:8}</style>
<path fill="none" stroke="black" d="M867.37,-482.36C881.65,-477.78 897.94,-472.61 912.79,-468 954.02,-455.21 966.57,-458.03 1005.79,-440 1020.29,-433.34 1035.28,-424.25 1048.02,-415.77"/>
<polygon fill="#000000" stroke="black" points="1050.14,-418.56 1056.44,-410.03 1046.2,-412.77 1050.14,-418.56"/>
</g>
<!-- hexastack_db_domain_exceptions&#45;&gt;hexastack_db_domain -->
<g id="edge21" class="edge">
<title>hexastack_db_domain_exceptions&#45;&gt;hexastack_db_domain</title><style>.edge>path:hover{stroke-width:8}</style>
<path fill="none" stroke="black" d="M876.87,-495C885.89,-495 895.15,-495 903.71,-495"/>
<polygon fill="#000000" stroke="black" points="903.73,-498.5 913.73,-495 903.73,-491.5 903.73,-498.5"/>
</g>
<!-- hexastack_db_infra -->
<g id="node8" class="node">
<title>hexastack_db_infra</title><style>.edge>path:hover{stroke-width:8}</style>
<polygon fill="blue" stroke="black" points="1579.36,-402 1525.36,-402 1525.36,-366 1579.36,-366 1579.36,-402"/>
<text text-anchor="middle" x="1552.36" y="-381.5" font-family="Helvetica,sans-Serif" font-size="10.00" fill="white">infra</text>
</g>
<!-- hexastack_db_infra&#45;&gt;hexastack_db -->
<g id="edge22" class="edge">
<title>hexastack_db_infra&#45;&gt;hexastack_db</title><style>.edge>path:hover{stroke-width:8}</style>
<path fill="none" stroke="black" d="M1579.62,-374.57C1587.67,-371.68 1596.82,-368.39 1605.92,-365.12"/>
<polygon fill="#000000" stroke="black" points="1607.11,-368.41 1615.34,-361.74 1604.74,-361.82 1607.11,-368.41"/>
</g>
<!-- hexastack_db_infra&#45;&gt;hexastack_db_adapters_vector -->
<g id="edge23" class="edge">
<title>hexastack_db_infra&#45;&gt;hexastack_db_adapters_vector</title><style>.edge>path:hover{stroke-width:8}</style>
<path fill="none" stroke="black" d="M1579.51,-387.58C1609.82,-390.56 1660.58,-391.82 1699.36,-374 1718.59,-365.17 1735.26,-348.11 1747.04,-333.42"/>
<polygon fill="#000000" stroke="black" points="1750.09,-335.19 1753.39,-325.12 1744.53,-330.94 1750.09,-335.19"/>
</g>
<!-- hexastack_db_infra_bootstrap&#45;&gt;hexastack_db_infra -->
<g id="edge24" class="edge">
<title>hexastack_db_infra_bootstrap&#45;&gt;hexastack_db_infra</title><style>.edge>path:hover{stroke-width:8}</style>
<path fill="none" stroke="black" d="M1476.91,-384C1488.84,-384 1502.61,-384 1515.03,-384"/>
<polygon fill="#000000" stroke="black" points="1515.08,-387.5 1525.08,-384 1515.08,-380.5 1515.08,-387.5"/>
</g>
<!-- hexastack_db_infra_config -->
<g id="node10" class="node">
<title>hexastack_db_infra_config</title><style>.edge>path:hover{stroke-width:8}</style>
<ellipse fill="#6bcc0a" stroke="black" cx="1199.59" cy="-467" rx="41.59" ry="18"/>
<text text-anchor="middle" x="1199.59" y="-464.5" font-family="Helvetica,sans-Serif" font-size="10.00" fill="#000000">infra.config</text>
</g>
<!-- hexastack_db_infra_config&#45;&gt;hexastack_db_adapters_vector -->
<g id="edge25" class="edge">
<title>hexastack_db_infra_config&#45;&gt;hexastack_db_adapters_vector</title><style>.edge>path:hover{stroke-width:8}</style>
<path fill="none" stroke="black" d="M1228.39,-480.11C1272.91,-499.87 1363.41,-535 1444.21,-535 1444.21,-535 1444.21,-535 1553.36,-535 1661.65,-535 1730.29,-395.36 1755.01,-334.64"/>
<polygon fill="#000000" stroke="black" points="1758.3,-335.86 1758.73,-325.27 1751.79,-333.28 1758.3,-335.86"/>
</g>
<!-- hexastack_db_infra_config&#45;&gt;hexastack_db_infra -->
<g id="edge26" class="edge">
<title>hexastack_db_infra_config&#45;&gt;hexastack_db_infra</title><style>.edge>path:hover{stroke-width:8}</style>
<path fill="none" stroke="black" d="M1241.66,-467.35C1299.4,-466.41 1406.73,-459.33 1489.36,-423 1498.97,-418.78 1508.82,-413.23 1517.76,-407.64"/>
<polygon fill="#000000" stroke="black" points="1519.86,-410.46 1526.36,-402.09 1516.06,-404.57 1519.86,-410.46"/>
</g>
<!-- hexastack_db_infra_config&#45;&gt;hexastack_db_infra_bootstrap -->
<g id="edge27" class="edge">
<title>hexastack_db_infra_config&#45;&gt;hexastack_db_infra_bootstrap</title><style>.edge>path:hover{stroke-width:8}</style>
<path fill="none" stroke="black" d="M1215.19,-450.21C1229.42,-435.08 1252.49,-413.65 1277.38,-403 1317.83,-385.71 1368.55,-382.2 1403.39,-382.23"/>
<polygon fill="#000000" stroke="black" points="1403.62,-385.74 1413.66,-382.35 1403.7,-378.74 1403.62,-385.74"/>
</g>
<!-- hexastack_db_infra_engine -->
<g id="node11" class="node">
<title>hexastack_db_infra_engine</title><style>.edge>path:hover{stroke-width:8}</style>
<polygon fill="blue" stroke="black" points="1358.72,-448 1283.72,-448 1283.72,-412 1358.72,-412 1358.72,-448"/>
<text text-anchor="middle" x="1321.22" y="-427.5" font-family="Helvetica,sans-Serif" font-size="10.00" fill="white">infra.engine</text>
</g>
<!-- hexastack_db_infra_config&#45;&gt;hexastack_db_infra_engine -->
<g id="edge28" class="edge">
<title>hexastack_db_infra_config&#45;&gt;hexastack_db_infra_engine</title><style>.edge>path:hover{stroke-width:8}</style>
<path fill="none" stroke="black" d="M1233.91,-456.69C1246.25,-452.88 1260.48,-448.48 1273.78,-444.36"/>
<polygon fill="#000000" stroke="black" points="1275.2,-447.59 1283.72,-441.29 1273.13,-440.9 1275.2,-447.59"/>
</g>
<!-- hexastack_db_infra_migrations -->
<g id="node12" class="node">
<title>hexastack_db_infra_migrations</title><style>.edge>path:hover{stroke-width:8}</style>
<polygon fill="blue" stroke="black" points="1479.71,-496 1410.71,-496 1410.71,-460 1479.71,-460 1479.71,-496"/>
<text text-anchor="middle" x="1445.21" y="-481" font-family="Helvetica,sans-Serif" font-size="10.00" fill="white">infra.</text>
<text text-anchor="middle" x="1445.21" y="-470" font-family="Helvetica,sans-Serif" font-size="10.00" fill="white">migrations</text>
</g>
<!-- hexastack_db_infra_config&#45;&gt;hexastack_db_infra_migrations -->
<g id="edge29" class="edge">
<title>hexastack_db_infra_config&#45;&gt;hexastack_db_infra_migrations</title><style>.edge>path:hover{stroke-width:8}</style>
<path fill="none" stroke="black" d="M1241.23,-469.87C1252.9,-470.63 1265.64,-471.41 1277.38,-472 1319.04,-474.1 1366.59,-475.74 1400.24,-476.77"/>
<polygon fill="#000000" stroke="black" points="1400.55,-480.28 1410.65,-477.08 1400.76,-473.28 1400.55,-480.28"/>
</g>
<!-- hexastack_db_infra_engine&#45;&gt;hexastack_db_infra -->
<g id="edge30" class="edge">
<title>hexastack_db_infra_engine&#45;&gt;hexastack_db_infra</title><style>.edge>path:hover{stroke-width:8}</style>
<path fill="none" stroke="black" d="M1358.99,-428.95C1393.25,-427.24 1445.5,-422.76 1489.36,-411 1498.18,-408.64 1507.36,-405.22 1515.87,-401.6"/>
<polygon fill="#000000" stroke="black" points="1517.42,-404.75 1525.13,-397.49 1514.57,-398.35 1517.42,-404.75"/>
</g>
<!-- hexastack_db_infra_engine&#45;&gt;hexastack_db_infra_bootstrap -->
<g id="edge31" class="edge">
<title>hexastack_db_infra_engine&#45;&gt;hexastack_db_infra_bootstrap</title><style>.edge>path:hover{stroke-width:8}</style>
<path fill="none" stroke="black" d="M1358.82,-416.2C1372.96,-410.87 1389.2,-404.74 1403.69,-399.28"/>
<polygon fill="#000000" stroke="black" points="1405.28,-402.42 1413.4,-395.62 1402.81,-395.87 1405.28,-402.42"/>
</g>
<!-- hexastack_db_infra_migrations&#45;&gt;hexastack_db_infra -->
<g id="edge32" class="edge">
<title>hexastack_db_infra_migrations&#45;&gt;hexastack_db_infra</title><style>.edge>path:hover{stroke-width:8}</style>
<path fill="none" stroke="black" d="M1471.8,-459.99C1477.7,-455.58 1483.85,-450.75 1489.36,-446 1502.6,-434.58 1516.44,-420.93 1527.67,-409.35"/>
<polygon fill="#000000" stroke="black" points="1530.25,-411.72 1534.65,-402.08 1525.2,-406.87 1530.25,-411.72"/>
</g>
<!-- hexastack_db_infra_mixins -->
<g id="node13" class="node">
<title>hexastack_db_infra_mixins</title><style>.edge>path:hover{stroke-width:8}</style>
<ellipse fill="#7ab83d" stroke="black" cx="1445.21" cy="-290" rx="44.3" ry="18"/>
<text text-anchor="middle" x="1445.21" y="-287.5" font-family="Helvetica,sans-Serif" font-size="10.00" fill="#000000">infra.mixins</text>
</g>
<!-- hexastack_db_infra_mixins&#45;&gt;hexastack_db_infra -->
<g id="edge33" class="edge">
<title>hexastack_db_infra_mixins&#45;&gt;hexastack_db_infra</title><style>.edge>path:hover{stroke-width:8}</style>
<path fill="none" stroke="black" d="M1464.53,-306.37C1480.8,-320.92 1504.82,-342.39 1523.48,-359.07"/>
<polygon fill="#000000" stroke="black" points="1521.32,-361.83 1531.1,-365.89 1525.98,-356.62 1521.32,-361.83"/>
</g>
<!-- hexastack_db_infra_registries -->
<g id="node14" class="node">
<title>hexastack_db_infra_registries</title><style>.edge>path:hover{stroke-width:8}</style>
<ellipse fill="#80cc33" stroke="black" cx="1321.22" cy="-313" rx="43.68" ry="21.43"/>
<text text-anchor="middle" x="1321.22" y="-316" font-family="Helvetica,sans-Serif" font-size="10.00" fill="#000000">infra.</text>
<text text-anchor="middle" x="1321.22" y="-305" font-family="Helvetica,sans-Serif" font-size="10.00" fill="#000000">registries</text>
</g>
<!-- hexastack_db_infra_registries&#45;&gt;hexastack_db_infra -->
<g id="edge34" class="edge">
<title>hexastack_db_infra_registries&#45;&gt;hexastack_db_infra</title><style>.edge>path:hover{stroke-width:8}</style>
<path fill="none" stroke="black" d="M1360.57,-322.37C1402.16,-332.66 1465.76,-348.81 1489.36,-357 1498.07,-360.02 1507.26,-363.73 1515.82,-367.41"/>
<polygon fill="#000000" stroke="black" points="1514.6,-370.7 1525.17,-371.53 1517.43,-364.3 1514.6,-370.7"/>
</g>
<!-- hexastack_db_infra_registries&#45;&gt;hexastack_db_infra_bootstrap -->
<g id="edge35" class="edge">
<title>hexastack_db_infra_registries&#45;&gt;hexastack_db_infra_bootstrap</title><style>.edge>path:hover{stroke-width:8}</style>
<path fill="none" stroke="black" d="M1349.9,-329.11C1366.07,-338.52 1386.73,-350.55 1404.6,-360.94"/>
<polygon fill="#000000" stroke="black" points="1403.24,-364.2 1413.64,-366.21 1406.76,-358.15 1403.24,-364.2"/>
</g>
<!-- pydantic_core -->
<g id="node15" class="node">
<title>pydantic_core</title><style>.edge>path:hover{stroke-width:8}</style>
<polygon fill="blue" stroke="black" points="406.8,-242 321.8,-242 321.8,-206 406.8,-206 406.8,-242"/>
<text text-anchor="middle" x="364.3" y="-221.5" font-family="Helvetica,sans-Serif" font-size="10.00" fill="white">pydantic_core</text>
</g>
<!-- pydantic -->
<g id="node19" class="node">
<title>pydantic</title><style>.edge>path:hover{stroke-width:8}</style>
<polygon fill="blue" stroke="black" points="538.8,-310 535.8,-314 514.8,-314 511.8,-310 479.8,-310 479.8,-274 538.8,-274 538.8,-310"/>
<text text-anchor="middle" x="509.3" y="-289.5" font-family="Helvetica,sans-Serif" font-size="10.00" fill="white">pydantic</text>
</g>
<!-- pydantic_core&#45;&gt;pydantic -->
<g id="edge38" class="edge">
<title>pydantic_core&#45;&gt;pydantic</title><style>.edge>path:hover{stroke-width:8}</style>
<path fill="none" stroke="black" d="M414.79,-243.1C424.5,-247.15 434.54,-251.55 443.8,-256 452.72,-260.29 462.12,-265.26 470.91,-270.12"/>
<polygon fill="#000000" stroke="black" points="469.36,-273.27 479.8,-275.11 472.79,-267.16 469.36,-273.27"/>
</g>
<!-- pydantic_core_core_schema -->
<g id="node16" class="node">
<title>pydantic_core_core_schema</title><style>.edge>path:hover{stroke-width:8}</style>
<polygon fill="blue" stroke="black" points="285.8,-242 197.8,-242 197.8,-206 285.8,-206 285.8,-242"/>
<text text-anchor="middle" x="241.8" y="-227" font-family="Helvetica,sans-Serif" font-size="10.00" fill="white">pydantic_core.</text>
<text text-anchor="middle" x="241.8" y="-216" font-family="Helvetica,sans-Serif" font-size="10.00" fill="white">core_schema</text>
</g>
<!-- pydantic_core_core_schema&#45;&gt;pydantic_core -->
<g id="edge40" class="edge">
<title>pydantic_core_core_schema&#45;&gt;pydantic_core</title><style>.edge>path:hover{stroke-width:8}</style>
<path fill="none" stroke="black" d="M285.96,-224C294.22,-224 302.94,-224 311.44,-224"/>
<polygon fill="#000000" stroke="black" points="311.65,-227.5 321.65,-224 311.65,-220.5 311.65,-227.5"/>
</g>
<!-- pydantic_core_core_schema&#45;&gt;pydantic -->
<g id="edge39" class="edge">
<title>pydantic_core_core_schema&#45;&gt;pydantic</title><style>.edge>path:hover{stroke-width:8}</style>
<path fill="none" stroke="black" d="M411.98,-273C433.46,-277.67 453.4,-281.68 469.5,-284.8"/>
<polygon fill="#000000" stroke="black" points="469.13,-288.29 479.61,-286.74 470.45,-281.42 469.13,-288.29"/>
</g>
<!-- alembic -->
<g id="node17" class="node">
<title>alembic</title><style>.edge>path:hover{stroke-width:8}</style>
<polygon fill="blue" stroke="black" points="968.79,-36 965.79,-40 944.79,-40 941.79,-36 912.79,-36 912.79,0 968.79,0 968.79,-36"/>
<text text-anchor="middle" x="940.79" y="-15.5" font-family="Helvetica,sans-Serif" font-size="10.00" fill="white">alembic</text>
</g>
<!-- alembic&#45;&gt;hexastack_db_infra_migrations -->
<g id="edge1" class="edge">
<title>alembic&#45;&gt;hexastack_db_infra_migrations</title><style>.edge>path:hover{stroke-width:8}</style>
<path fill="none" stroke="black" d="M968.91,-27.04C1035.66,-50.56 1210.78,-120.04 1325.05,-236.62"/>
<polygon fill="blue" stroke="black" points="1322.69,-239.21 1332.15,-244 1327.74,-234.36 1322.69,-239.21"/>
</g>
<!-- hexastack_core -->
<g id="node18" class="node">
<title>hexastack_core</title><style>.edge>path:hover{stroke-width:8}</style>
<polygon fill="blue" stroke="black" points="741.8,-562 738.8,-566 717.8,-566 714.8,-562 648.8,-562 648.8,-526 741.8,-526 741.8,-562"/>
<text text-anchor="middle" x="695.3" y="-541.5" font-family="Helvetica,sans-Serif" font-size="10.00" fill="white">hexastack_core</text>
</g>
<!-- hexastack_core&#45;&gt;hexastack_db_adapters_repository -->
<g id="edge2" class="edge">
<title>hexastack_core&#45;&gt;hexastack_db_adapters_repository</title><style>.edge>path:hover{stroke-width:8}</style>
<path fill="none" stroke="black" d="M709.4,-525.86C721.35,-510.29 740.33,-487.79 761.56,-471.09"/>
<polygon fill="blue" stroke="black" points="763.84,-473.76 769.8,-465 759.67,-468.13 763.84,-473.76"/>
</g>
<!-- hexastack_core&#45;&gt;hexastack_db_adapters_unit_of_work -->
<g id="edge3" class="edge">
<title>hexastack_core&#45;&gt;hexastack_db_adapters_unit_of_work</title><style>.edge>path:hover{stroke-width:8}</style>
<path fill="none" stroke="black" d="M742.11,-549.6C747.61,-550.07 753.51,-550.51 759.74,-550.9"/>
<polygon fill="blue" stroke="black" points="759.62,-554.39 769.8,-551.44 760,-547.4 759.62,-554.39"/>
</g>
<!-- hexastack_core&#45;&gt;hexastack_db_adapters_vector -->
<g id="edge4" class="edge">
<title>hexastack_core&#45;&gt;hexastack_db_adapters_vector</title><style>.edge>path:hover{stroke-width:8}</style>
<path fill="none" stroke="black" d="M702.5,-562.31C712.39,-588.54 734.32,-636.39 769.8,-661 833.18,-704.97 862.65,-696 939.79,-696 939.79,-696 939.79,-696 1553.36,-696 1625.91,-696 1673.77,-643.2 1705.3,-576.5"/>
<polygon fill="blue" stroke="black" points="1708.66,-577.55 1709.64,-567 1702.3,-574.64 1708.66,-577.55"/>
</g>
<!-- hexastack_core&#45;&gt;hexastack_db_domain_exceptions -->
<g id="edge5" class="edge">
<title>hexastack_core&#45;&gt;hexastack_db_domain_exceptions</title><style>.edge>path:hover{stroke-width:8}</style>
<path fill="none" stroke="black" d="M742.13,-526.72C748,-524.51 754.1,-522.21 760.21,-519.91"/>
<polygon fill="blue" stroke="black" points="761.68,-523.1 769.8,-516.29 759.21,-516.55 761.68,-523.1"/>
</g>
<!-- hexastack_core&#45;&gt;hexastack_db_infra_bootstrap -->
<g id="edge6" class="edge">
<title>hexastack_core&#45;&gt;hexastack_db_infra_bootstrap</title><style>.edge>path:hover{stroke-width:8}</style>
<path fill="none" stroke="black" d="M723.95,-562.08C737.33,-570.12 753.91,-579.09 769.8,-585 842.1,-611.88 862.65,-620 939.79,-620 939.79,-620 939.79,-620 1200.59,-620 1221.9,-620 1250.65,-601.13 1280.91,-574.05"/>
<polygon fill="blue" stroke="black" points="1283.61,-576.33 1288.64,-567 1278.89,-571.16 1283.61,-576.33"/>
</g>
<!-- hexastack_core&#45;&gt;hexastack_db_infra_config -->
<g id="edge7" class="edge">
<title>hexastack_core&#45;&gt;hexastack_db_infra_config</title><style>.edge>path:hover{stroke-width:8}</style>
<path fill="none" stroke="black" d="M741.95,-556.87C747.82,-558.33 753.87,-559.75 759.85,-561.02"/>
<polygon fill="blue" stroke="black" points="759.31,-564.48 769.8,-563 760.67,-557.62 759.31,-564.48"/>
</g>
<!-- hexastack_core&#45;&gt;hexastack_db_infra_migrations -->
<g id="edge8" class="edge">
<title>hexastack_core&#45;&gt;hexastack_db_infra_migrations</title><style>.edge>path:hover{stroke-width:8}</style>
<path fill="none" stroke="black" d="M705.7,-562.32C717.58,-583.4 740.09,-617.26 769.8,-634 836.27,-671.46 863.49,-658 939.79,-658 939.79,-658 939.79,-658 1200.59,-658 1274.46,-658 1305.07,-677.11 1365.06,-634 1385.26,-619.49 1400.64,-598.29 1412.21,-576.18"/>
<polygon fill="blue" stroke="black" points="1415.45,-577.51 1416.78,-567 1409.19,-574.39 1415.45,-577.51"/>
</g>
<!-- pydantic&#45;&gt;hexastack_db_infra_config -->
<g id="edge37" class="edge">
<title>pydantic&#45;&gt;hexastack_db_infra_config</title><style>.edge>path:hover{stroke-width:8}</style>
<path fill="none" stroke="black" d="M539.17,-292C559.48,-292 587.3,-292 611.8,-292 611.8,-292 611.8,-292 759.39,-292"/>
<polygon fill="blue" stroke="black" points="759.8,-295.5 769.8,-292 759.8,-288.5 759.8,-295.5"/>
</g>
<!-- pydantic&#45;&gt;hexastack_core -->
<g id="edge36" class="edge">
<title>pydantic&#45;&gt;hexastack_core</title><style>.edge>path:hover{stroke-width:8}</style>
<path fill="none" stroke="black" d="M523.53,-310.12C555.54,-353.97 637.3,-465.95 674.88,-517.4"/>
<polygon fill="blue" stroke="black" points="672.21,-519.69 680.94,-525.7 677.87,-515.56 672.21,-519.69"/>
</g>
<!-- rodi -->
<g id="node20" class="node">
<title>rodi</title><style>.edge>path:hover{stroke-width:8}</style>
<ellipse fill="#536cb6" stroke="black" cx="509.3" cy="-544" rx="27" ry="18"/>
<text text-anchor="middle" x="509.3" y="-541.5" font-family="Helvetica,sans-Serif" font-size="10.00" fill="#ffffff">rodi</text>
</g>
<!-- rodi&#45;&gt;hexastack_core -->
<g id="edge41" class="edge">
<title>rodi&#45;&gt;hexastack_core</title><style>.edge>path:hover{stroke-width:8}</style>
<path fill="none" stroke="black" d="M536.66,-544C563.14,-544 604.74,-544 638.57,-544"/>
<polygon fill="#536cb6" stroke="black" points="638.79,-547.5 648.79,-544 638.79,-540.5 638.79,-547.5"/>
</g>
<!-- sqlalchemy -->
<g id="node21" class="node">
<title>sqlalchemy</title><style>.edge>path:hover{stroke-width:8}</style>
<polygon fill="blue" stroke="black" points="863.79,-158 860.79,-162 839.79,-162 836.79,-158 790.79,-158 790.79,-122 863.79,-122 863.79,-158"/>
<text text-anchor="middle" x="827.29" y="-137.5" font-family="Helvetica,sans-Serif" font-size="10.00" fill="white">sqlalchemy</text>
</g>
<!-- sqlalchemy&#45;&gt;hexastack_db_adapters_repository -->
<g id="edge43" class="edge">
<title>sqlalchemy&#45;&gt;hexastack_db_adapters_repository</title><style>.edge>path:hover{stroke-width:8}</style>
<path fill="none" stroke="black" d="M836.03,-158.16C844.77,-177.3 860.64,-208.43 882.22,-235.97"/>
<polygon fill="blue" stroke="black" points="879.74,-238.47 888.78,-244 885.17,-234.04 879.74,-238.47"/>
</g>
<!-- sqlalchemy&#45;&gt;hexastack_db_adapters_unit_of_work -->
<g id="edge44" class="edge">
<title>sqlalchemy&#45;&gt;hexastack_db_adapters_unit_of_work</title><style>.edge>path:hover{stroke-width:8}</style>
<path fill="none" stroke="black" d="M837.24,-158.07C846.57,-176.83 861.85,-207.28 876.42,-235.08"/>
<polygon fill="blue" stroke="black" points="873.36,-236.79 881.11,-244 879.55,-233.52 873.36,-236.79"/>
</g>
<!-- sqlalchemy&#45;&gt;hexastack_db_adapters_vector -->
<g id="edge45" class="edge">
<title>sqlalchemy&#45;&gt;hexastack_db_adapters_vector</title><style>.edge>path:hover{stroke-width:8}</style>
<path fill="none" stroke="black" d="M852.59,-121.99C885.37,-99.51 946.41,-64 1004.79,-64 1004.79,-64 1004.79,-64 1553.36,-64 1644.81,-64 1705.86,-162.92 1738.09,-234.53"/>
<polygon fill="blue" stroke="black" points="1735.02,-236.26 1742.25,-244 1741.43,-233.44 1735.02,-236.26"/>
</g>
<!-- sqlalchemy&#45;&gt;hexastack_db_infra_bootstrap -->
<g id="edge46" class="edge">
<title>sqlalchemy&#45;&gt;hexastack_db_infra_bootstrap</title><style>.edge>path:hover{stroke-width:8}</style>
<path fill="none" stroke="black" d="M863.94,-130.54C959.02,-107.66 1221.15,-60.3 1365.06,-190 1381.54,-204.85 1387.25,-218.98 1389.29,-233.7"/>
<polygon fill="blue" stroke="black" points="1385.83,-234.35 1390.2,-244 1392.8,-233.73 1385.83,-234.35"/>
</g>
<!-- sqlalchemy&#45;&gt;hexastack_db_infra_engine -->
<g id="edge47" class="edge">
<title>sqlalchemy&#45;&gt;hexastack_db_infra_engine</title><style>.edge>path:hover{stroke-width:8}</style>
<path fill="none" stroke="black" d="M842.96,-158.06C862.67,-180.8 900.52,-219.38 945.71,-240"/>
<polygon fill="blue" stroke="black" points="944.57,-243.32 955.15,-244 947.3,-236.88 944.57,-243.32"/>
</g>
<!-- sqlalchemy&#45;&gt;hexastack_db_infra_mixins -->
<g id="edge48" class="edge">
<title>sqlalchemy&#45;&gt;hexastack_db_infra_mixins</title><style>.edge>path:hover{stroke-width:8}</style>
<path fill="none" stroke="black" d="M863.97,-134.22C954.26,-121.43 1196.62,-98.62 1365.06,-190 1384.47,-200.53 1400.77,-218.03 1413.44,-235.47"/>
<polygon fill="blue" stroke="black" points="1410.78,-237.79 1419.36,-244 1416.53,-233.79 1410.78,-237.79"/>
</g>
<!-- sqlalchemy&#45;&gt;hexastack_db_infra_registries -->
<g id="edge49" class="edge">
<title>sqlalchemy&#45;&gt;hexastack_db_infra_registries</title><style>.edge>path:hover{stroke-width:8}</style>
<path fill="none" stroke="black" d="M852.59,-158.01C885.37,-180.49 946.41,-216 1004.79,-216 1004.79,-216 1004.79,-216 1082.79,-216 1150.88,-216 1174.98,-209.69 1239.56,-239.54"/>
<polygon fill="blue" stroke="black" points="1238.42,-242.88 1248.96,-244 1241.42,-236.55 1238.42,-242.88"/>
</g>
<!-- sqlalchemy&#45;&gt;alembic -->
<g id="edge42" class="edge">
<title>sqlalchemy&#45;&gt;alembic</title><style>.edge>path:hover{stroke-width:8}</style>
<path fill="none" stroke="black" d="M844.75,-122C863.69,-101.28 894.94,-67.08 916.4,-43.59"/>
<polygon fill="blue" stroke="black" points="919.11,-45.82 923.27,-36.08 913.94,-41.1 919.11,-45.82"/>
</g>
<!-- typing_extensions -->
<g id="node22" class="node">
<title>typing_extensions</title><style>.edge>path:hover{stroke-width:8}</style>
<ellipse fill="#f910bf" stroke="black" cx="62.4" cy="-178" rx="62.3" ry="18"/>
<text text-anchor="middle" x="62.4" y="-175.5" font-family="Helvetica,sans-Serif" font-size="10.00" fill="#ffffff">typing_extensions</text>
</g>
<!-- typing_extensions&#45;&gt;pydantic_core -->
<g id="edge52" class="edge">
<title>typing_extensions&#45;&gt;pydantic_core</title><style>.edge>path:hover{stroke-width:8}</style>
<path fill="none" stroke="black" d="M124.89,-179.14C167.33,-180.86 225.17,-185.05 280.34,-195.96"/>
<polygon fill="#f910bf" stroke="black" points="279.75,-199.41 290.25,-198 281.16,-192.56 279.75,-199.41"/>
</g>
<!-- typing_extensions&#45;&gt;pydantic_core_core_schema -->
<g id="edge53" class="edge">
<title>typing_extensions&#45;&gt;pydantic_core_core_schema</title><style>.edge>path:hover{stroke-width:8}</style>
<path fill="none" stroke="black" d="M109.54,-189.97C133.46,-196.17 162.77,-203.77 187.63,-210.21"/>
<polygon fill="#f910bf" stroke="black" points="179.23,-211.55 189.8,-210.81 181.07,-204.79 179.23,-211.55"/>
</g>
<!-- typing_extensions&#45;&gt;alembic -->
<g id="edge50" class="edge">
<title>typing_extensions&#45;&gt;alembic</title><style>.edge>path:hover{stroke-width:8}</style>
<path fill="none" stroke="black" d="M76.61,-160.26C103.46,-126.42 168.1,-56 240.8,-56 240.8,-56 240.8,-56 696.3,-56 770.24,-56 855.31,-38.68 902.79,-27.43"/>
<polygon fill="#f910bf" stroke="black" points="903.72,-30.81 912.62,-25.06 902.08,-24 903.72,-30.81"/>
</g>
<!-- typing_extensions&#45;&gt;pydantic -->
<g id="edge51" class="edge">
<title>typing_extensions&#45;&gt;pydantic</title><style>.edge>path:hover{stroke-width:8}</style>
<path fill="none" stroke="black" d="M75.53,-195.8C101.4,-231.41 165.77,-308 240.8,-308 240.8,-308 240.8,-308 365.3,-308 400.78,-308 440.92,-303.07 469.62,-298.69"/>
<polygon fill="#f910bf" stroke="black" points="470.31,-302.12 479.64,-297.11 469.22,-295.21 470.31,-302.12"/>
</g>
<!-- typing_extensions&#45;&gt;sqlalchemy -->
<g id="edge54" class="edge">
<title>typing_extensions&#45;&gt;sqlalchemy</title><style>.edge>path:hover{stroke-width:8}</style>
<path fill="none" stroke="black" d="M103.39,-164.39C139.01,-153.48 192.76,-140 240.8,-140 240.8,-140 240.8,-140 612.8,-140 670.67,-140 737.36,-140 780.59,-140"/>
<polygon fill="#f910bf" stroke="black" points="780.78,-143.5 790.78,-140 780.78,-136.5 780.78,-143.5"/>
</g>
</g>
</svg>
