<?xml version="1.0" encoding="UTF-8" standalone="no"?>
<!DOCTYPE svg PUBLIC "-//W3C//DTD SVG 1.1//EN"
 "http://www.w3.org/Graphics/SVG/1.1/DTD/svg11.dtd">
<!-- Generated by graphviz version 2.43.0 (0)
 -->
<!-- Title: G Pages: 1 -->
<svg width="976pt" height="1182pt"
 viewBox="0.00 0.00 975.93 1182.38" xmlns="http://www.w3.org/2000/svg" xmlns:xlink="http://www.w3.org/1999/xlink">
<g id="graph0" class="graph" transform="scale(1 1) rotate(0) translate(4 1178.38)">
<title>G</title><style>.edge>path:hover{stroke-width:8}</style>
<polygon fill="white" stroke="transparent" points="-4,4 -4,-1178.38 971.93,-1178.38 971.93,4 -4,4"/>
<!-- hexastack_core -->
<g id="node1" class="node">
<title>hexastack_core</title><style>.edge>path:hover{stroke-width:8}</style>
<polygon fill="blue" stroke="black" points="532.5,-1028.38 529.5,-1032.38 508.5,-1032.38 505.5,-1028.38 439.5,-1028.38 439.5,-992.38 532.5,-992.38 532.5,-1028.38"/>
<text text-anchor="middle" x="486" y="-1007.88" font-family="Helvetica,sans-Serif" font-size="10.00" fill="white">hexastack_core</text>
</g>
<!-- hexastack_cqrs -->
<g id="node2" class="node">
<title>hexastack_cqrs</title><style>.edge>path:hover{stroke-width:8}</style>
<polygon fill="blue" stroke="black" points="606,-822.19 603,-826.19 582,-826.19 579,-822.19 514,-822.19 514,-786.19 606,-786.19 606,-822.19"/>
<text text-anchor="middle" x="560" y="-801.69" font-family="Helvetica,sans-Serif" font-size="10.00" fill="white">hexastack_cqrs</text>
</g>
<!-- hexastack_core&#45;&gt;hexastack_cqrs -->
<g id="edge1" class="edge">
<title>hexastack_core&#45;&gt;hexastack_cqrs</title><style>.edge>path:hover{stroke-width:8}</style>
<path fill="none" stroke="black" d="M530.98,-992.37C562.44,-978.75 603.88,-957.17 633,-928.39"/>
<path fill="none" stroke="black" d="M633,-926.39C662.03,-897.7 622.62,-855.2 591.39,-828.9"/>
<polygon fill="blue" stroke="black" points="593.22,-825.87 583.27,-822.25 588.79,-831.29 593.22,-825.87"/>
</g>
<!-- hexastack_mcp_domain_exceptions -->
<g id="node9" class="node">
<title>hexastack_mcp_domain_exceptions</title><style>.edge>path:hover{stroke-width:8}</style>
<ellipse fill="#5cb03a" stroke="black" cx="486" cy="-927.39" rx="67.76" ry="28.98"/>
<text text-anchor="middle" x="486" y="-935.89" font-family="Helvetica,sans-Serif" font-size="10.00" fill="#000000">hexastack_mcp.</text>
<text text-anchor="middle" x="486" y="-924.89" font-family="Helvetica,sans-Serif" font-size="10.00" fill="#000000">domain.</text>
<text text-anchor="middle" x="486" y="-913.89" font-family="Helvetica,sans-Serif" font-size="10.00" fill="#000000">exceptions</text>
</g>
<!-- hexastack_core&#45;&gt;hexastack_mcp_domain_exceptions -->
<g id="edge2" class="edge">
<title>hexastack_core&#45;&gt;hexastack_mcp_domain_exceptions</title><style>.edge>path:hover{stroke-width:8}</style>
<path fill="none" stroke="black" d="M486,-992.21C486,-984.8 486,-975.81 486,-966.95"/>
<polygon fill="blue" stroke="black" points="489.5,-966.7 486,-956.7 482.5,-966.7 489.5,-966.7"/>
</g>
<!-- hexastack_mcp_infra_autodiscovery -->
<g id="node12" class="node">
<title>hexastack_mcp_infra_autodiscovery</title><style>.edge>path:hover{stroke-width:8}</style>
<ellipse fill="#407a28" stroke="black" cx="688" cy="-122.97" rx="67.76" ry="28.98"/>
<text text-anchor="middle" x="688" y="-131.47" font-family="Helvetica,sans-Serif" font-size="10.00" fill="#ffffff">hexastack_mcp.</text>
<text text-anchor="middle" x="688" y="-120.47" font-family="Helvetica,sans-Serif" font-size="10.00" fill="#ffffff">infra.</text>
<text text-anchor="middle" x="688" y="-109.47" font-family="Helvetica,sans-Serif" font-size="10.00" fill="#ffffff">autodiscovery</text>
</g>
<!-- hexastack_core&#45;&gt;hexastack_mcp_infra_autodiscovery -->
<g id="edge3" class="edge">
<title>hexastack_core&#45;&gt;hexastack_mcp_infra_autodiscovery</title><style>.edge>path:hover{stroke-width:8}</style>
<path fill="none" stroke="black" d="M532.71,-1000.65C633.66,-978.89 870.02,-911.7 957,-746.97 1018.75,-630.01 797.29,-548.51 784,-413.7"/>
</g>
<!-- hexastack_mcp_infra_bootstrap -->
<g id="node13" class="node">
<title>hexastack_mcp_infra_bootstrap</title><style>.edge>path:hover{stroke-width:8}</style>
<ellipse fill="#3f6b2e" stroke="black" cx="688" cy="-28.99" rx="67.76" ry="28.98"/>
<text text-anchor="middle" x="688" y="-37.49" font-family="Helvetica,sans-Serif" font-size="10.00" fill="#ffffff">hexastack_mcp.</text>
<text text-anchor="middle" x="688" y="-26.49" font-family="Helvetica,sans-Serif" font-size="10.00" fill="#ffffff">infra.</text>
<text text-anchor="middle" x="688" y="-15.49" font-family="Helvetica,sans-Serif" font-size="10.00" fill="#ffffff">bootstrap</text>
</g>
<!-- hexastack_core&#45;&gt;hexastack_mcp_infra_bootstrap -->
<g id="edge4" class="edge">
<title>hexastack_core&#45;&gt;hexastack_mcp_infra_bootstrap</title><style>.edge>path:hover{stroke-width:8}</style>
<path fill="none" stroke="black" d="M439.27,-1003.66C335.06,-988.42 96.13,-938.53 140,-805.19"/>
<path fill="none" stroke="black" d="M140,-803.19C148.46,-778.87 129.13,-772.53 126,-746.97 122.02,-714.53 119.76,-705.52 126,-673.44 134.6,-629.21 129.77,-608.76 164,-579.45 217.39,-533.74 260.07,-583.26 318,-543.45 330.39,-534.94 330.89,-529.2 337,-515.46"/>
<path fill="none" stroke="black" d="M337,-513.46C354.9,-472.9 306.93,-446.29 337,-413.7"/>
</g>
<!-- hexastack_mcp_infra_config -->
<g id="node14" class="node">
<title>hexastack_mcp_infra_config</title><style>.edge>path:hover{stroke-width:8}</style>
<ellipse fill="#449324" stroke="black" cx="804" cy="-608.44" rx="67.76" ry="28.98"/>
<text text-anchor="middle" x="804" y="-616.94" font-family="Helvetica,sans-Serif" font-size="10.00" fill="#ffffff">hexastack_mcp.</text>
<text text-anchor="middle" x="804" y="-605.94" font-family="Helvetica,sans-Serif" font-size="10.00" fill="#ffffff">infra.</text>
<text text-anchor="middle" x="804" y="-594.94" font-family="Helvetica,sans-Serif" font-size="10.00" fill="#ffffff">config</text>
</g>
<!-- hexastack_core&#45;&gt;hexastack_mcp_infra_config -->
<g id="edge5" class="edge">
<title>hexastack_core&#45;&gt;hexastack_mcp_infra_config</title><style>.edge>path:hover{stroke-width:8}</style>
<path fill="none" stroke="black" d="M633,-926.39C694.91,-861.88 762.38,-902.89 807,-825.4 816.41,-809.06 808.04,-801.8 807,-782.97 806.11,-766.9 803.89,-763.05 803,-746.97 801.19,-714.34 802.74,-706.12 803,-673.44 803.06,-665.06 803.18,-656.07 803.3,-647.56"/>
<polygon fill="blue" stroke="black" points="806.8,-647.53 803.46,-637.48 799.8,-647.42 806.8,-647.53"/>
</g>
<!-- hexastack_mcp_infra_middleware_metrics -->
<g id="node17" class="node">
<title>hexastack_mcp_infra_middleware_metrics</title><style>.edge>path:hover{stroke-width:8}</style>
<ellipse fill="#509933" stroke="black" cx="203" cy="-710.21" rx="67.76" ry="36.54"/>
<text text-anchor="middle" x="203" y="-724.21" font-family="Helvetica,sans-Serif" font-size="10.00" fill="#ffffff">hexastack_mcp.</text>
<text text-anchor="middle" x="203" y="-713.21" font-family="Helvetica,sans-Serif" font-size="10.00" fill="#ffffff">infra.</text>
<text text-anchor="middle" x="203" y="-702.21" font-family="Helvetica,sans-Serif" font-size="10.00" fill="#ffffff">middleware.</text>
<text text-anchor="middle" x="203" y="-691.21" font-family="Helvetica,sans-Serif" font-size="10.00" fill="#ffffff">metrics</text>
</g>
<!-- hexastack_core&#45;&gt;hexastack_mcp_infra_middleware_metrics -->
<g id="edge6" class="edge">
<title>hexastack_core&#45;&gt;hexastack_mcp_infra_middleware_metrics</title><style>.edge>path:hover{stroke-width:8}</style>
<path fill="none" stroke="black" d="M140,-803.19C145.6,-784.75 156.38,-766.74 167.45,-751.62"/>
<polygon fill="blue" stroke="black" points="170.34,-753.6 173.61,-743.53 164.77,-749.37 170.34,-753.6"/>
</g>
<!-- hexastack_mcp_infra_registries_server -->
<g id="node19" class="node">
<title>hexastack_mcp_infra_registries_server</title><style>.edge>path:hover{stroke-width:8}</style>
<ellipse fill="#358217" stroke="black" cx="458" cy="-412.7" rx="67.76" ry="36.54"/>
<text text-anchor="middle" x="458" y="-426.7" font-family="Helvetica,sans-Serif" font-size="10.00" fill="#ffffff">hexastack_mcp.</text>
<text text-anchor="middle" x="458" y="-415.7" font-family="Helvetica,sans-Serif" font-size="10.00" fill="#ffffff">infra.</text>
<text text-anchor="middle" x="458" y="-404.7" font-family="Helvetica,sans-Serif" font-size="10.00" fill="#ffffff">registries.</text>
<text text-anchor="middle" x="458" y="-393.7" font-family="Helvetica,sans-Serif" font-size="10.00" fill="#ffffff">server</text>
</g>
<!-- hexastack_core&#45;&gt;hexastack_mcp_infra_registries_server -->
<g id="edge7" class="edge">
<title>hexastack_core&#45;&gt;hexastack_mcp_infra_registries_server</title><style>.edge>path:hover{stroke-width:8}</style>
<path fill="none" stroke="black" d="M140,-803.19C155.34,-752.74 232.82,-774.56 280,-746.97 320.57,-723.25 316.55,-698.99 356,-673.44 420.28,-631.8 485.56,-679.72 516,-609.44"/>
<path fill="none" stroke="black" d="M516,-607.44C531.38,-569.57 525.79,-555.15 516,-515.46"/>
</g>
<!-- hexastack_cqrs&#45;&gt;hexastack_mcp_infra_registries_server -->
<g id="edge8" class="edge">
<title>hexastack_cqrs&#45;&gt;hexastack_mcp_infra_registries_server</title><style>.edge>path:hover{stroke-width:8}</style>
<path fill="none" stroke="black" d="M548.87,-786.08C537.99,-768.23 522.19,-739.03 516,-711.21"/>
</g>
<!-- hexastack_mcp -->
<g id="node3" class="node">
<title>hexastack_mcp</title><style>.edge>path:hover{stroke-width:8}</style>
<ellipse fill="#42db05" stroke="black" cx="420" cy="-710.21" rx="54.99" ry="18"/>
<text text-anchor="middle" x="420" y="-707.71" font-family="Helvetica,sans-Serif" font-size="10.00" fill="#000000">hexastack_mcp</text>
</g>
<!-- hexastack_mcp_adapters -->
<g id="node4" class="node">
<title>hexastack_mcp_adapters</title><style>.edge>path:hover{stroke-width:8}</style>
<ellipse fill="#65ce3b" stroke="black" cx="236" cy="-804.19" rx="67.76" ry="21.43"/>
<text text-anchor="middle" x="236" y="-807.19" font-family="Helvetica,sans-Serif" font-size="10.00" fill="#000000">hexastack_mcp.</text>
<text text-anchor="middle" x="236" y="-796.19" font-family="Helvetica,sans-Serif" font-size="10.00" fill="#000000">adapters</text>
</g>
<!-- hexastack_mcp_adapters&#45;&gt;hexastack_mcp -->
<g id="edge9" class="edge">
<title>hexastack_mcp_adapters&#45;&gt;hexastack_mcp</title><style>.edge>path:hover{stroke-width:8}</style>
<path fill="none" stroke="black" d="M271.59,-786.06C294.36,-775.03 324.5,-760.32 351,-746.97 361.42,-741.72 372.68,-735.94 383.02,-730.58"/>
<polygon fill="#65ce3b" stroke="black" points="384.95,-733.52 392.21,-725.8 381.72,-727.31 384.95,-733.52"/>
</g>
<!-- hexastack_mcp_adapters&#45;&gt;hexastack_mcp_infra_bootstrap -->
<g id="edge10" class="edge">
<title>hexastack_mcp_adapters&#45;&gt;hexastack_mcp_infra_bootstrap</title><style>.edge>path:hover{stroke-width:8}</style>
<path fill="none" stroke="black" d="M254.03,-783.51C262.77,-773.2 272.88,-760.03 280,-746.97 304.66,-701.73 305.54,-687.44 318,-637.44 331.26,-584.2 315.73,-566.04 337,-515.46"/>
</g>
<!-- hexastack_mcp_adapters_fastapi -->
<g id="node5" class="node">
<title>hexastack_mcp_adapters_fastapi</title><style>.edge>path:hover{stroke-width:8}</style>
<ellipse fill="#509933" stroke="black" cx="241" cy="-514.46" rx="67.76" ry="28.98"/>
<text text-anchor="middle" x="241" y="-522.96" font-family="Helvetica,sans-Serif" font-size="10.00" fill="#ffffff">hexastack_mcp.</text>
<text text-anchor="middle" x="241" y="-511.96" font-family="Helvetica,sans-Serif" font-size="10.00" fill="#ffffff">adapters.</text>
<text text-anchor="middle" x="241" y="-500.96" font-family="Helvetica,sans-Serif" font-size="10.00" fill="#ffffff">fastapi</text>
</g>
<!-- hexastack_mcp_adapters_fastapi&#45;&gt;hexastack_mcp_infra_bootstrap -->
<g id="edge11" class="edge">
<title>hexastack_mcp_adapters_fastapi&#45;&gt;hexastack_mcp_infra_bootstrap</title><style>.edge>path:hover{stroke-width:8}</style>
<path fill="none" stroke="black" d="M268.88,-487.91C289.09,-468.62 316.37,-440.9 337,-413.7"/>
</g>
<!-- hexastack_mcp_adapters_stdio -->
<g id="node6" class="node">
<title>hexastack_mcp_adapters_stdio</title><style>.edge>path:hover{stroke-width:8}</style>
<ellipse fill="#61a446" stroke="black" cx="87" cy="-514.46" rx="67.76" ry="28.98"/>
<text text-anchor="middle" x="87" y="-522.96" font-family="Helvetica,sans-Serif" font-size="10.00" fill="#000000">hexastack_mcp.</text>
<text text-anchor="middle" x="87" y="-511.96" font-family="Helvetica,sans-Serif" font-size="10.00" fill="#000000">adapters.</text>
<text text-anchor="middle" x="87" y="-500.96" font-family="Helvetica,sans-Serif" font-size="10.00" fill="#000000">stdio</text>
</g>
<!-- hexastack_mcp_domain -->
<g id="node7" class="node">
<title>hexastack_mcp_domain</title><style>.edge>path:hover{stroke-width:8}</style>
<ellipse fill="#55f316" stroke="black" cx="730" cy="-804.19" rx="67.76" ry="21.43"/>
<text text-anchor="middle" x="730" y="-807.19" font-family="Helvetica,sans-Serif" font-size="10.00" fill="#000000">hexastack_mcp.</text>
<text text-anchor="middle" x="730" y="-796.19" font-family="Helvetica,sans-Serif" font-size="10.00" fill="#000000">domain</text>
</g>
<!-- hexastack_mcp_domain&#45;&gt;hexastack_mcp -->
<g id="edge12" class="edge">
<title>hexastack_mcp_domain&#45;&gt;hexastack_mcp</title><style>.edge>path:hover{stroke-width:8}</style>
<path fill="none" stroke="black" d="M673.95,-792.15C627.33,-782.31 559.53,-766.46 502,-746.97 487.67,-742.12 472.38,-735.79 458.93,-729.8"/>
<polygon fill="#55f316" stroke="black" points="460.06,-726.47 449.51,-725.53 457.17,-732.84 460.06,-726.47"/>
</g>
<!-- hexastack_mcp_domain&#45;&gt;hexastack_mcp_infra_autodiscovery -->
<g id="edge13" class="edge">
<title>hexastack_mcp_domain&#45;&gt;hexastack_mcp_infra_autodiscovery</title><style>.edge>path:hover{stroke-width:8}</style>
<path fill="none" stroke="black" d="M734.01,-782.8C737.56,-764.21 742.68,-735.95 746,-711.21"/>
<path fill="none" stroke="black" d="M746,-709.21C750.38,-676.5 731.25,-670.16 727,-637.44 723.67,-611.88 722.75,-604.87 727,-579.45 739.84,-502.62 784,-491.6 784,-413.7"/>
<path fill="none" stroke="black" d="M784,-411.7C779.34,-364.48 731.71,-357.18 746,-311.94"/>
</g>
<!-- hexastack_mcp_domain&#45;&gt;hexastack_mcp_infra_config -->
<g id="edge14" class="edge">
<title>hexastack_mcp_domain&#45;&gt;hexastack_mcp_infra_config</title><style>.edge>path:hover{stroke-width:8}</style>
<path fill="none" stroke="black" d="M746,-709.21C749.15,-685.66 761.83,-662.52 774.53,-644.46"/>
<polygon fill="#55f316" stroke="black" points="777.63,-646.16 780.73,-636.03 771.99,-642.01 777.63,-646.16"/>
</g>
<!-- hexastack_mcp_infra_decorators -->
<g id="node15" class="node">
<title>hexastack_mcp_infra_decorators</title><style>.edge>path:hover{stroke-width:8}</style>
<ellipse fill="#4ca328" stroke="black" cx="554" cy="-216.96" rx="67.76" ry="28.98"/>
<text text-anchor="middle" x="554" y="-225.46" font-family="Helvetica,sans-Serif" font-size="10.00" fill="#ffffff">hexastack_mcp.</text>
<text text-anchor="middle" x="554" y="-214.46" font-family="Helvetica,sans-Serif" font-size="10.00" fill="#ffffff">infra.</text>
<text text-anchor="middle" x="554" y="-203.46" font-family="Helvetica,sans-Serif" font-size="10.00" fill="#ffffff">decorators</text>
</g>
<!-- hexastack_mcp_domain&#45;&gt;hexastack_mcp_infra_decorators -->
<g id="edge15" class="edge">
<title>hexastack_mcp_domain&#45;&gt;hexastack_mcp_infra_decorators</title><style>.edge>path:hover{stroke-width:8}</style>
<path fill="none" stroke="black" d="M554,-607.44C535.8,-477.37 602.48,-434 554,-311.94"/>
<path fill="none" stroke="black" d="M554,-309.94C546.99,-293.23 546.2,-273.27 547.48,-256.21"/>
<polygon fill="#55f316" stroke="black" points="550.99,-256.33 548.51,-246.03 544.02,-255.62 550.99,-256.33"/>
</g>
<!-- hexastack_mcp_domain&#45;&gt;hexastack_mcp_infra_registries_server -->
<g id="edge16" class="edge">
<title>hexastack_mcp_domain&#45;&gt;hexastack_mcp_infra_registries_server</title><style>.edge>path:hover{stroke-width:8}</style>
<path fill="none" stroke="black" d="M677.36,-790.6C637.21,-779.9 586.55,-763.66 573,-746.97 534.09,-699.08 560.14,-670.84 554,-609.44"/>
<path fill="none" stroke="black" d="M554,-607.44C547.87,-563.64 526.6,-558.41 516,-515.46"/>
</g>
<!-- hexastack_mcp_domain_config -->
<g id="node8" class="node">
<title>hexastack_mcp_domain_config</title><style>.edge>path:hover{stroke-width:8}</style>
<ellipse fill="#64c040" stroke="black" cx="880" cy="-710.21" rx="67.76" ry="28.98"/>
<text text-anchor="middle" x="880" y="-718.71" font-family="Helvetica,sans-Serif" font-size="10.00" fill="#000000">hexastack_mcp.</text>
<text text-anchor="middle" x="880" y="-707.71" font-family="Helvetica,sans-Serif" font-size="10.00" fill="#000000">domain.</text>
<text text-anchor="middle" x="880" y="-696.71" font-family="Helvetica,sans-Serif" font-size="10.00" fill="#000000">config</text>
</g>
<!-- hexastack_mcp_domain_config&#45;&gt;hexastack_mcp_infra_config -->
<g id="edge17" class="edge">
<title>hexastack_mcp_domain_config&#45;&gt;hexastack_mcp_infra_config</title><style>.edge>path:hover{stroke-width:8}</style>
<path fill="none" stroke="black" d="M859.63,-682.47C850.68,-670.73 840.07,-656.79 830.51,-644.25"/>
<polygon fill="#64c040" stroke="black" points="833.26,-642.09 824.42,-636.25 827.7,-646.33 833.26,-642.09"/>
</g>
<!-- hexastack_mcp_domain_exceptions&#45;&gt;hexastack_mcp_infra_registries_server -->
<g id="edge18" class="edge">
<title>hexastack_mcp_domain_exceptions&#45;&gt;hexastack_mcp_infra_registries_server</title><style>.edge>path:hover{stroke-width:8}</style>
<path fill="none" stroke="black" d="M489.54,-898.34C493.24,-869.41 499.28,-823.01 505,-782.97 509.56,-751.03 523.01,-742.7 516,-711.21"/>
<path fill="none" stroke="black" d="M516,-709.21C505.38,-666.16 498.37,-650.13 516,-609.44"/>
</g>
<!-- hexastack_mcp_domain_metadata -->
<g id="node10" class="node">
<title>hexastack_mcp_domain_metadata</title><style>.edge>path:hover{stroke-width:8}</style>
<ellipse fill="#60db2f" stroke="black" cx="650" cy="-710.21" rx="67.76" ry="28.98"/>
<text text-anchor="middle" x="650" y="-718.71" font-family="Helvetica,sans-Serif" font-size="10.00" fill="#000000">hexastack_mcp.</text>
<text text-anchor="middle" x="650" y="-707.71" font-family="Helvetica,sans-Serif" font-size="10.00" fill="#000000">domain.</text>
<text text-anchor="middle" x="650" y="-696.71" font-family="Helvetica,sans-Serif" font-size="10.00" fill="#000000">metadata</text>
</g>
<!-- hexastack_mcp_domain_metadata&#45;&gt;hexastack_mcp_infra_autodiscovery -->
<g id="edge19" class="edge">
<title>hexastack_mcp_domain_metadata&#45;&gt;hexastack_mcp_infra_autodiscovery</title><style>.edge>path:hover{stroke-width:8}</style>
<path fill="none" stroke="black" d="M746,-411.7C744.14,-367.4 732.64,-354.22 746,-311.94"/>
</g>
<!-- hexastack_mcp_domain_metadata&#45;&gt;hexastack_mcp_infra_decorators -->
<g id="edge20" class="edge">
<title>hexastack_mcp_domain_metadata&#45;&gt;hexastack_mcp_infra_decorators</title><style>.edge>path:hover{stroke-width:8}</style>
<path fill="none" stroke="black" d="M621,-607.44C596.77,-549.1 659.21,-538.21 694,-485.47 715.69,-452.59 743.41,-453.01 746,-413.7"/>
<path fill="none" stroke="black" d="M746,-411.7C742.5,-328.53 637.52,-392.52 573,-339.93 561.34,-330.43 559.55,-325.91 554,-311.94"/>
</g>
<!-- hexastack_mcp_domain_metadata&#45;&gt;hexastack_mcp_infra_registries_server -->
<g id="edge21" class="edge">
<title>hexastack_mcp_domain_metadata&#45;&gt;hexastack_mcp_infra_registries_server</title><style>.edge>path:hover{stroke-width:8}</style>
<path fill="none" stroke="black" d="M643.6,-681.12C638.56,-660.81 630.75,-632.93 621,-609.44"/>
<path fill="none" stroke="black" d="M621,-607.44C597.21,-550.15 530.86,-575.69 516,-515.46"/>
</g>
<!-- hexastack_mcp_infra -->
<g id="node11" class="node">
<title>hexastack_mcp_infra</title><style>.edge>path:hover{stroke-width:8}</style>
<ellipse fill="#53f910" stroke="black" cx="390" cy="-804.19" rx="67.76" ry="21.43"/>
<text text-anchor="middle" x="390" y="-807.19" font-family="Helvetica,sans-Serif" font-size="10.00" fill="#000000">hexastack_mcp.</text>
<text text-anchor="middle" x="390" y="-796.19" font-family="Helvetica,sans-Serif" font-size="10.00" fill="#000000">infra</text>
</g>
<!-- hexastack_mcp_infra&#45;&gt;hexastack_mcp -->
<g id="edge22" class="edge">
<title>hexastack_mcp_infra&#45;&gt;hexastack_mcp</title><style>.edge>path:hover{stroke-width:8}</style>
<path fill="none" stroke="black" d="M396.65,-782.77C400.96,-769.57 406.61,-752.24 411.27,-737.95"/>
<polygon fill="#53f910" stroke="black" points="414.69,-738.77 414.46,-728.17 408.03,-736.6 414.69,-738.77"/>
</g>
<!-- hexastack_mcp_infra_autodiscovery&#45;&gt;hexastack_mcp_infra_bootstrap -->
<g id="edge23" class="edge">
<title>hexastack_mcp_infra_autodiscovery&#45;&gt;hexastack_mcp_infra_bootstrap</title><style>.edge>path:hover{stroke-width:8}</style>
<path fill="none" stroke="black" d="M688,-93.88C688,-85.84 688,-76.94 688,-68.39"/>
<polygon fill="#407a28" stroke="black" points="691.5,-68.23 688,-58.23 684.5,-68.23 691.5,-68.23"/>
</g>
<!-- hexastack_mcp_infra_config&#45;&gt;hexastack_mcp_infra_bootstrap -->
<g id="edge24" class="edge">
<title>hexastack_mcp_infra_config&#45;&gt;hexastack_mcp_infra_bootstrap</title><style>.edge>path:hover{stroke-width:8}</style>
<path fill="none" stroke="black" d="M806.85,-579.37C811.92,-526.89 822,-410.37 822,-311.94 822,-311.94 822,-311.94 822,-215.96 822,-156.12 801.56,-141.35 765,-93.98 755.51,-81.68 743.26,-70.17 731.33,-60.4"/>
<polygon fill="#449324" stroke="black" points="733.18,-57.39 723.17,-53.92 728.82,-62.88 733.18,-57.39"/>
</g>
<!-- hexastack_mcp_infra_config&#45;&gt;hexastack_mcp_infra_registries_server -->
<g id="edge25" class="edge">
<title>hexastack_mcp_infra_config&#45;&gt;hexastack_mcp_infra_registries_server</title><style>.edge>path:hover{stroke-width:8}</style>
<path fill="none" stroke="black" d="M739.4,-599.09C657.92,-586.74 527.02,-560.11 516,-515.46"/>
</g>
<!-- hexastack_mcp_infra_decorators&#45;&gt;hexastack_mcp_infra_autodiscovery -->
<g id="edge26" class="edge">
<title>hexastack_mcp_infra_decorators&#45;&gt;hexastack_mcp_infra_autodiscovery</title><style>.edge>path:hover{stroke-width:8}</style>
<path fill="none" stroke="black" d="M588.85,-192.03C605.78,-180.41 626.29,-166.33 644.26,-154"/>
<polygon fill="#4ca328" stroke="black" points="646.58,-156.65 652.85,-148.1 642.62,-150.87 646.58,-156.65"/>
</g>
<!-- hexastack_mcp_infra_decorators&#45;&gt;hexastack_mcp_infra_bootstrap -->
<g id="edge27" class="edge">
<title>hexastack_mcp_infra_decorators&#45;&gt;hexastack_mcp_infra_bootstrap</title><style>.edge>path:hover{stroke-width:8}</style>
<path fill="none" stroke="black" d="M562.32,-187.97C568.72,-168.97 578.73,-143.79 592,-123.97"/>
</g>
<!-- hexastack_mcp_infra_middleware -->
<g id="node16" class="node">
<title>hexastack_mcp_infra_middleware</title><style>.edge>path:hover{stroke-width:8}</style>
<ellipse fill="#58a838" stroke="black" cx="241" cy="-608.44" rx="67.76" ry="28.98"/>
<text text-anchor="middle" x="241" y="-616.94" font-family="Helvetica,sans-Serif" font-size="10.00" fill="#000000">hexastack_mcp.</text>
<text text-anchor="middle" x="241" y="-605.94" font-family="Helvetica,sans-Serif" font-size="10.00" fill="#000000">infra.</text>
<text text-anchor="middle" x="241" y="-594.94" font-family="Helvetica,sans-Serif" font-size="10.00" fill="#000000">middleware</text>
</g>
<!-- hexastack_mcp_infra_middleware_metrics&#45;&gt;hexastack_mcp_infra_middleware -->
<g id="edge28" class="edge">
<title>hexastack_mcp_infra_middleware_metrics&#45;&gt;hexastack_mcp_infra_middleware</title><style>.edge>path:hover{stroke-width:8}</style>
<path fill="none" stroke="black" d="M216.39,-674.03C219.78,-665.13 223.43,-655.55 226.86,-646.56"/>
<polygon fill="#509933" stroke="black" points="230.17,-647.69 230.46,-637.1 223.63,-645.2 230.17,-647.69"/>
</g>
<!-- hexastack_mcp_infra_registries -->
<g id="node18" class="node">
<title>hexastack_mcp_infra_registries</title><style>.edge>path:hover{stroke-width:8}</style>
<ellipse fill="#60db2f" stroke="black" cx="650" cy="-310.94" rx="67.76" ry="28.98"/>
<text text-anchor="middle" x="650" y="-319.44" font-family="Helvetica,sans-Serif" font-size="10.00" fill="#000000">hexastack_mcp.</text>
<text text-anchor="middle" x="650" y="-308.44" font-family="Helvetica,sans-Serif" font-size="10.00" fill="#000000">infra.</text>
<text text-anchor="middle" x="650" y="-297.44" font-family="Helvetica,sans-Serif" font-size="10.00" fill="#000000">registries</text>
</g>
<!-- hexastack_mcp_infra_registries&#45;&gt;hexastack_mcp_infra_autodiscovery -->
<g id="edge29" class="edge">
<title>hexastack_mcp_infra_registries&#45;&gt;hexastack_mcp_infra_autodiscovery</title><style>.edge>path:hover{stroke-width:8}</style>
<path fill="none" stroke="black" d="M650,-215.96C648.97,-196.63 656.12,-176.61 664.48,-160.19"/>
<polygon fill="#60db2f" stroke="black" points="667.79,-161.44 669.5,-150.98 661.64,-158.09 667.79,-161.44"/>
</g>
<!-- hexastack_mcp_infra_registries&#45;&gt;hexastack_mcp_infra_bootstrap -->
<g id="edge30" class="edge">
<title>hexastack_mcp_infra_registries&#45;&gt;hexastack_mcp_infra_bootstrap</title><style>.edge>path:hover{stroke-width:8}</style>
<path fill="none" stroke="black" d="M650.77,-281.74C651.08,-263.53 651.13,-239.33 650,-217.96"/>
<path fill="none" stroke="black" d="M650,-215.96C647.44,-167.69 565.1,-164.13 592,-123.97"/>
</g>
<!-- hexastack_mcp_infra_registries&#45;&gt;hexastack_mcp_infra_decorators -->
<g id="edge31" class="edge">
<title>hexastack_mcp_infra_registries&#45;&gt;hexastack_mcp_infra_decorators</title><style>.edge>path:hover{stroke-width:8}</style>
<path fill="none" stroke="black" d="M623,-284.07C612.17,-273.7 599.57,-261.62 588.12,-250.65"/>
<polygon fill="#60db2f" stroke="black" points="590.43,-248.02 580.79,-243.63 585.59,-253.08 590.43,-248.02"/>
</g>
<!-- hexastack_mcp_infra_registries_server&#45;&gt;hexastack_mcp_infra_autodiscovery -->
<g id="edge32" class="edge">
<title>hexastack_mcp_infra_registries_server&#45;&gt;hexastack_mcp_infra_autodiscovery</title><style>.edge>path:hover{stroke-width:8}</style>
<path fill="none" stroke="black" d="M525.17,-406.89C583.22,-399.86 667,-382.55 727,-339.93 739.25,-331.22 740.94,-326.1 746,-311.94"/>
<path fill="none" stroke="black" d="M746,-309.94C764.48,-258.19 736.14,-197.22 712.96,-159.58"/>
<polygon fill="#358217" stroke="black" points="715.83,-157.56 707.52,-150.99 709.92,-161.31 715.83,-157.56"/>
</g>
<!-- hexastack_mcp_infra_registries_server&#45;&gt;hexastack_mcp_infra_bootstrap -->
<g id="edge33" class="edge">
<title>hexastack_mcp_infra_registries_server&#45;&gt;hexastack_mcp_infra_bootstrap</title><style>.edge>path:hover{stroke-width:8}</style>
<path fill="none" stroke="black" d="M453.96,-375.67C452.82,-356.49 453.01,-332.65 458,-311.94"/>
<path fill="none" stroke="black" d="M458,-309.94C467.56,-270.19 431.84,-249.38 458,-217.96"/>
</g>
<!-- hexastack_mcp_infra_registries_server&#45;&gt;hexastack_mcp_infra_decorators -->
<g id="edge34" class="edge">
<title>hexastack_mcp_infra_registries_server&#45;&gt;hexastack_mcp_infra_decorators</title><style>.edge>path:hover{stroke-width:8}</style>
<path fill="none" stroke="black" d="M458,-309.94C464.36,-283.49 485.21,-261.9 505.86,-246.3"/>
<polygon fill="#358217" stroke="black" points="507.97,-249.09 514.04,-240.41 503.88,-243.41 507.97,-249.09"/>
</g>
<!-- mcp -->
<g id="node20" class="node">
<title>mcp</title><style>.edge>path:hover{stroke-width:8}</style>
<polygon fill="blue" stroke="black" points="58,-822.19 55,-826.19 34,-826.19 31,-822.19 4,-822.19 4,-786.19 58,-786.19 58,-822.19"/>
<text text-anchor="middle" x="31" y="-801.69" font-family="Helvetica,sans-Serif" font-size="10.00" fill="white">mcp</text>
</g>
<!-- mcp&#45;&gt;hexastack_mcp_adapters_fastapi -->
<g id="edge35" class="edge">
<title>mcp&#45;&gt;hexastack_mcp_adapters_fastapi</title><style>.edge>path:hover{stroke-width:8}</style>
<path fill="none" stroke="black" d="M69,-607.44C79.15,-594.58 79.8,-589.17 93,-579.45 107.98,-568.41 147.34,-551.57 181.71,-537.94"/>
<polygon fill="blue" stroke="black" points="183.22,-541.1 191.24,-534.18 180.65,-534.59 183.22,-541.1"/>
</g>
<!-- mcp&#45;&gt;hexastack_mcp_adapters_stdio -->
<g id="edge36" class="edge">
<title>mcp&#45;&gt;hexastack_mcp_adapters_stdio</title><style>.edge>path:hover{stroke-width:8}</style>
<path fill="none" stroke="black" d="M69,-607.44C80.88,-592.39 85.63,-571.7 87.31,-553.75"/>
<polygon fill="blue" stroke="black" points="90.81,-553.77 87.97,-543.57 83.83,-553.32 90.81,-553.77"/>
</g>
<!-- mcp&#45;&gt;hexastack_mcp_infra_bootstrap -->
<g id="edge37" class="edge">
<title>mcp&#45;&gt;hexastack_mcp_infra_bootstrap</title><style>.edge>path:hover{stroke-width:8}</style>
<path fill="none" stroke="black" d="M29.49,-786.06C27.21,-749.48 26.95,-662.72 69,-609.44"/>
<path fill="none" stroke="black" d="M69,-607.44C92.56,-576.77 24.07,-579.49 10,-543.45 0.62,-519.45 -6.15,-505.55 10,-485.47 103.25,-369.53 247.09,-532.26 337,-413.7"/>
<path fill="none" stroke="black" d="M337,-411.7C397.68,-330.31 393.05,-295.99 458,-217.96"/>
<path fill="none" stroke="black" d="M458,-215.96C466.9,-203.84 465.9,-198.12 477,-187.97 520.15,-148.48 559.45,-172.57 592,-123.97"/>
<path fill="none" stroke="black" d="M592,-121.97C600.36,-109.48 600.89,-105.12 611,-93.98 621.73,-82.16 634.67,-70.58 646.86,-60.59"/>
<polygon fill="blue" stroke="black" points="649.13,-63.26 654.73,-54.27 644.74,-57.8 649.13,-63.26"/>
</g>
<!-- mcp&#45;&gt;hexastack_mcp_infra_registries_server -->
<g id="edge38" class="edge">
<title>mcp&#45;&gt;hexastack_mcp_infra_registries_server</title><style>.edge>path:hover{stroke-width:8}</style>
<path fill="none" stroke="black" d="M69,-607.44C131.82,-527.83 540.3,-613.92 516,-515.46"/>
<path fill="none" stroke="black" d="M516,-513.46C510.97,-493.09 500.34,-472.69 489.55,-455.69"/>
<polygon fill="blue" stroke="black" points="492.33,-453.56 483.91,-447.13 486.49,-457.41 492.33,-453.56"/>
</g>
<!-- pydantic -->
<g id="node21" class="node">
<title>pydantic</title><style>.edge>path:hover{stroke-width:8}</style>
<polygon fill="#0691f9" stroke="black" points="551.5,-1174.38 548.5,-1178.38 527.5,-1178.38 524.5,-1174.38 492.5,-1174.38 492.5,-1138.38 551.5,-1138.38 551.5,-1174.38"/>
<text text-anchor="middle" x="522" y="-1153.88" font-family="Helvetica,sans-Serif" font-size="10.00" fill="#ffffff">pydantic</text>
</g>
<!-- pydantic&#45;&gt;hexastack_core -->
<g id="edge39" class="edge">
<title>pydantic&#45;&gt;hexastack_core</title><style>.edge>path:hover{stroke-width:8}</style>
<path fill="none" stroke="black" d="M486,-1064.38C480.38,-1057.19 479.11,-1047.62 479.67,-1038.59"/>
<polygon fill="#0691f9" stroke="black" points="483.17,-1038.78 481.01,-1028.41 476.23,-1037.86 483.17,-1038.78"/>
</g>
<!-- pydantic&#45;&gt;hexastack_mcp_domain_config -->
<g id="edge40" class="edge">
<title>pydantic&#45;&gt;hexastack_mcp_domain_config</title><style>.edge>path:hover{stroke-width:8}</style>
<path fill="none" stroke="black" d="M540.88,-1138.29C591.44,-1091.82 732.2,-957.77 823,-825.4 839.56,-801.26 854.21,-771.62 864.51,-748.59"/>
<polygon fill="#0691f9" stroke="black" points="867.83,-749.72 868.65,-739.15 861.42,-746.9 867.83,-749.72"/>
</g>
<!-- pydantic&#45;&gt;mcp -->
<g id="edge41" class="edge">
<title>pydantic&#45;&gt;mcp</title><style>.edge>path:hover{stroke-width:8}</style>
<path fill="none" stroke="black" d="M518.24,-1138.34C513.35,-1119.08 503.3,-1087.53 486,-1065.38"/>
<path fill="none" stroke="black" d="M486,-1064.38C412.14,-1007.12 135.48,-1091.97 67,-1028.38 12.56,-977.84 18.94,-880.04 25.96,-832.48"/>
<polygon fill="#0691f9" stroke="black" points="29.46,-832.76 27.59,-822.33 22.55,-831.65 29.46,-832.76"/>
</g>
<!-- rodi -->
<g id="node22" class="node">
<title>rodi</title><style>.edge>path:hover{stroke-width:8}</style>
<polygon fill="#6a47c2" stroke="black" points="642,-1174.38 639,-1178.38 618,-1178.38 615,-1174.38 588,-1174.38 588,-1138.38 642,-1138.38 642,-1174.38"/>
<text text-anchor="middle" x="615" y="-1153.88" font-family="Helvetica,sans-Serif" font-size="10.00" fill="#ffffff">rodi</text>
</g>
<!-- rodi&#45;&gt;hexastack_core -->
<g id="edge42" class="edge">
<title>rodi&#45;&gt;hexastack_core</title><style>.edge>path:hover{stroke-width:8}</style>
<path fill="none" stroke="black" d="M599.69,-1138.3C577,-1112.97 534.3,-1065.31 508.18,-1036.15"/>
<polygon fill="#6a47c2" stroke="black" points="510.56,-1033.56 501.28,-1028.45 505.35,-1038.23 510.56,-1033.56"/>
</g>
<!-- rodi&#45;&gt;hexastack_mcp_infra_registries_server -->
<g id="edge43" class="edge">
<title>rodi&#45;&gt;hexastack_mcp_infra_registries_server</title><style>.edge>path:hover{stroke-width:8}</style>
<path fill="none" stroke="black" d="M633.64,-1138.38C649.93,-1121.58 671,-1094.28 671,-1065.38 671,-1065.38 671,-1065.38 671,-926.39 671,-857.96 660.53,-834.05 615,-782.97 578.83,-742.41 529,-763.97 516,-711.21"/>
</g>
<!-- starlette -->
<g id="node23" class="node">
<title>starlette</title><style>.edge>path:hover{stroke-width:8}</style>
<polygon fill="#ce3bb9" stroke="black" points="134,-1028.38 131,-1032.38 110,-1032.38 107,-1028.38 76,-1028.38 76,-992.38 134,-992.38 134,-1028.38"/>
<text text-anchor="middle" x="105" y="-1007.88" font-family="Helvetica,sans-Serif" font-size="10.00" fill="#ffffff">starlette</text>
</g>
<!-- starlette&#45;&gt;hexastack_mcp_adapters_fastapi -->
<g id="edge44" class="edge">
<title>starlette&#45;&gt;hexastack_mcp_adapters_fastapi</title><style>.edge>path:hover{stroke-width:8}</style>
<path fill="none" stroke="black" d="M86,-861.4C61.44,-781.49 75.51,-755.18 93,-673.44 102.42,-629.38 101.49,-613.5 131,-579.45 145.23,-563.02 164.78,-549.77 183.45,-539.68"/>
<polygon fill="#ce3bb9" stroke="black" points="185.25,-542.69 192.51,-534.98 182.02,-536.47 185.25,-542.69"/>
</g>
<!-- starlette&#45;&gt;mcp -->
<g id="edge45" class="edge">
<title>starlette&#45;&gt;mcp</title><style>.edge>path:hover{stroke-width:8}</style>
<path fill="none" stroke="black" d="M103.81,-992C101.68,-964.31 96.44,-908.58 86,-862.4"/>
<path fill="none" stroke="black" d="M86,-861.4C82.17,-848.94 73.54,-837.95 64.24,-829.08"/>
<polygon fill="#ce3bb9" stroke="black" points="66.51,-826.42 56.7,-822.42 61.88,-831.67 66.51,-826.42"/>
</g>
</g>
</svg>
